<?xml version="1.0" encoding="UTF-8"?>
<svg width="574px" height="129px" viewBox="0 0 574 129" version="1.1" xmlns="http://www.w3.org/2000/svg" xmlns:xlink="http://www.w3.org/1999/xlink">
    <!-- Generator: Sketch 52.6 (67491) - http://www.bohemiancoding.com/sketch -->
    <title>logo_h</title>
    <desc>Created with Sketch.</desc>
    <g id="Page-1" stroke="none" stroke-width="1" fill="none" fill-rule="evenodd">
        <g id="Artboard">
            <g id="logo_h">
                <g id="claim" transform="translate(178.000000, 106.000000)" fill="#575756">
                    <path d="M9.7,6.5 C10.6,7 11.3,7.7 11.8,8.6 C12.3,9.5 12.6,10.5 12.6,11.7 L12.6,16 C12.6,17.1 12.3,18.2 11.8,19.1 C11.3,20 10.6,20.7 9.7,21.3 C8.8,21.8 7.8,22.1 6.7,22.1 C5.6,22.1 4.6,21.9 3.8,21.5 C3,21.1 2.2,20.5 1.7,19.8 C1.6,19.7 1.5,19.5 1.5,19.3 C1.5,19.1 1.6,18.9 1.8,18.7 C1.9,18.6 2.1,18.6 2.3,18.6 C2.4,18.6 2.6,18.6 2.7,18.7 C2.8,18.8 2.9,18.8 3,18.9 C3.4,19.4 4,19.9 4.6,20.2 C5.3,20.5 6,20.6 6.8,20.6 C7.6,20.6 8.3,20.4 9,20 C9.6,19.6 10.1,19.1 10.5,18.4 C10.9,17.7 11.1,16.9 11.1,16 L11.1,15 C10.7,15.8 10.1,16.4 9.3,16.9 C8.5,17.4 7.6,17.6 6.6,17.6 C5.5,17.6 4.5,17.3 3.6,16.8 C2.7,16.3 2.1,15.6 1.6,14.7 C1.1,13.8 0.9,12.8 0.9,11.7 C0.9,10.6 1.2,9.5 1.7,8.6 C2.2,7.7 2.9,7 3.8,6.5 C4.7,6 5.7,5.7 6.8,5.7 C7.8,5.7 8.8,6 9.7,6.5 Z M8.9,15.5 C9.6,15.1 10.1,14.6 10.4,13.9 C10.8,13.2 11,12.5 11,11.6 C11,10.7 10.8,10 10.4,9.3 C10,8.6 9.5,8.1 8.9,7.7 C8.2,7.3 7.5,7.1 6.7,7.1 C5.9,7.1 5.1,7.3 4.5,7.7 C3.8,8.1 3.3,8.6 3,9.3 C2.6,10 2.4,10.7 2.4,11.6 C2.4,12.5 2.6,13.2 3,13.9 C3.4,14.6 3.9,15.1 4.5,15.5 C5.2,15.9 5.9,16.1 6.7,16.1 C7.5,16.1 8.3,15.9 8.9,15.5 Z" id="Shape" fill-rule="nonzero"></path>
                    <path d="M22.4,5.9 C22.7,6.1 22.9,6.3 22.9,6.6 C22.9,6.7 22.9,6.7 22.9,6.8 C22.8,7 22.8,7.1 22.6,7.2 C22.5,7.3 22.3,7.3 22.1,7.3 C22,7.3 21.8,7.3 21.4,7.3 C21.3,7.3 21.1,7.3 20.9,7.3 C19.8,7.3 19,7.6 18.3,8.1 C17.6,8.7 17.3,9.4 17.3,10.3 L17.3,16.6 C17.3,16.9 17.2,17.1 17.1,17.2 C17,17.3 16.8,17.4 16.5,17.4 C16.2,17.4 16,17.3 15.9,17.2 C15.8,17.1 15.7,16.9 15.7,16.6 L15.7,6.6 C15.7,6.3 15.8,6.1 15.9,6 C16,5.9 16.2,5.8 16.5,5.8 C16.8,5.8 17,5.9 17.1,6 C17.2,6.1 17.3,6.3 17.3,6.6 L17.3,7.5 C17.7,6.9 18.2,6.4 18.9,6.1 C19.5,5.8 20.2,5.6 21,5.6 C21.6,5.7 22.1,5.8 22.4,5.9 Z" id="Path"></path>
                    <path d="M32.7,6.5 C33.6,7 34.3,7.7 34.8,8.6 C35.3,9.5 35.6,10.5 35.6,11.6 L35.6,16.6 C35.6,16.8 35.5,17 35.4,17.2 C35.2,17.4 35,17.4 34.8,17.4 C34.6,17.4 34.4,17.3 34.2,17.2 C34,17.1 34,16.9 34,16.6 L34,15.3 C33.5,16 32.9,16.5 32.1,16.9 C31.3,17.3 30.5,17.5 29.6,17.5 C28.5,17.5 27.6,17.2 26.7,16.7 C25.8,16.2 25.1,15.5 24.6,14.6 C24.1,13.7 23.8,12.7 23.8,11.6 C23.8,10.5 24.1,9.5 24.6,8.6 C25.1,7.7 25.8,7 26.7,6.5 C27.6,6 28.6,5.7 29.7,5.7 C30.8,5.7 31.8,6 32.7,6.5 Z M31.9,15.5 C32.6,15.1 33.1,14.6 33.4,13.9 C33.8,13.2 34,12.5 34,11.6 C34,10.7 33.8,10 33.4,9.3 C33,8.6 32.5,8.1 31.9,7.7 C31.2,7.3 30.5,7.1 29.7,7.1 C28.9,7.1 28.2,7.3 27.5,7.7 C26.8,8.1 26.3,8.6 26,9.3 C25.6,10 25.4,10.7 25.4,11.6 C25.4,12.5 25.6,13.2 26,13.9 C26.4,14.6 26.9,15.1 27.5,15.5 C28.2,15.9 28.9,16.1 29.7,16.1 C30.5,16.1 31.2,15.9 31.9,15.5 Z" id="Shape" fill-rule="nonzero"></path>
                    <path d="M44.2,6.5 C44.3,6.6 44.4,6.8 44.4,7 C44.4,7.2 44.3,7.4 44.2,7.5 C44.1,7.6 43.9,7.7 43.7,7.7 L41,7.7 L41,16.6 C41,16.8 40.9,17 40.8,17.2 C40.6,17.4 40.4,17.4 40.2,17.4 C40,17.4 39.8,17.3 39.6,17.2 C39.4,17 39.4,16.8 39.4,16.6 L39.4,7.7 L38,7.7 C37.8,7.7 37.6,7.6 37.5,7.5 C37.4,7.4 37.3,7.2 37.3,7 C37.3,6.8 37.4,6.6 37.5,6.5 C37.6,6.4 37.8,6.3 38,6.3 L39.4,6.3 L39.4,5.8 C39.4,4.3 39.8,3.1 40.6,2.2 C41.4,1.3 42.7,0.9 44.4,0.9 C45.3,0.9 46.1,1 46.7,1.3 C47.4,1.6 47.7,2 47.7,2.5 C47.7,3.1 47.4,3.4 46.7,3.4 C46.5,3.4 46.3,3.4 46.1,3.3 C45.9,3.2 45.7,3.1 45.5,2.9 C45.2,2.7 45,2.5 44.7,2.4 C44.5,2.3 44.2,2.2 43.9,2.2 C43,2.2 42.3,2.5 41.8,3 C41.3,3.6 41,4.5 41,5.8 L41,6.3 L43.6,6.3 C43.8,6.3 44,6.3 44.2,6.5 Z M47.4,6.1 C47.5,6.3 47.6,6.5 47.6,6.7 L47.6,16.6 C47.6,16.8 47.5,17 47.4,17.2 C47.3,17.4 47.1,17.4 46.8,17.4 C46.5,17.4 46.4,17.3 46.2,17.2 C46,17 46,16.8 46,16.6 L46,6.7 C46,6.5 46.1,6.3 46.2,6.1 C46.4,5.9 46.6,5.9 46.8,5.9 C47,5.9 47.2,5.9 47.4,6.1 Z" id="Shape" fill-rule="nonzero"></path>
                    <path d="M53.8,16.8 C52.9,16.3 52.2,15.6 51.7,14.7 C51.2,13.8 50.9,12.8 50.9,11.7 C50.9,10.6 51.1,9.6 51.6,8.7 C52.1,7.8 52.7,7.1 53.6,6.6 C54.4,6.1 55.4,5.8 56.5,5.8 C58.3,5.8 59.7,6.5 60.8,7.8 C60.9,7.9 61,8.1 61,8.2 C61,8.4 60.9,8.6 60.6,8.8 C60.5,8.9 60.3,8.9 60.2,8.9 C60,8.9 59.8,8.8 59.6,8.6 C59.2,8.1 58.7,7.8 58.2,7.5 C57.7,7.3 57.1,7.2 56.5,7.2 C55.7,7.2 55,7.4 54.4,7.8 C53.8,8.2 53.3,8.7 53,9.4 C52.7,10.1 52.5,10.8 52.5,11.7 C52.5,12.5 52.7,13.3 53,14 C53.4,14.7 53.8,15.2 54.5,15.6 C55.1,16 55.9,16.2 56.7,16.2 C57.8,16.2 58.7,15.9 59.4,15.3 C59.6,15.1 59.8,15.1 60,15.1 C60.2,15.1 60.3,15.2 60.5,15.3 C60.7,15.5 60.8,15.7 60.8,15.9 C60.8,16.1 60.7,16.2 60.6,16.4 C59.6,17.3 58.3,17.8 56.7,17.8 C55.7,17.5 54.7,17.3 53.8,16.8 Z" id="Path"></path>
                    <path d="M72.5,6.5 C73.4,7 74.1,7.7 74.6,8.6 C75.1,9.5 75.4,10.5 75.4,11.6 L75.4,16.6 C75.4,16.8 75.3,17 75.2,17.2 C75,17.4 74.8,17.4 74.6,17.4 C74.4,17.4 74.2,17.3 74,17.2 C73.8,17.1 73.8,16.9 73.8,16.6 L73.8,15.3 C73.3,16 72.7,16.5 71.9,16.9 C71.1,17.3 70.3,17.5 69.4,17.5 C68.3,17.5 67.4,17.2 66.5,16.7 C65.6,16.2 64.9,15.5 64.4,14.6 C63.9,13.7 63.6,12.7 63.6,11.6 C63.6,10.5 63.9,9.5 64.4,8.6 C64.9,7.7 65.6,7 66.5,6.5 C67.4,6 68.4,5.7 69.5,5.7 C70.6,5.7 71.6,6 72.5,6.5 Z M71.7,15.5 C72.4,15.1 72.9,14.6 73.2,13.9 C73.6,13.2 73.8,12.5 73.8,11.6 C73.8,10.7 73.6,10 73.2,9.3 C72.8,8.6 72.3,8.1 71.7,7.7 C71,7.3 70.3,7.1 69.5,7.1 C68.7,7.1 68,7.3 67.3,7.7 C66.6,8.1 66.1,8.6 65.8,9.3 C65.4,10 65.2,10.7 65.2,11.6 C65.2,12.5 65.4,13.2 65.8,13.9 C66.2,14.6 66.7,15.1 67.3,15.5 C68,15.9 68.7,16.1 69.5,16.1 C70.3,16.1 71.1,15.9 71.7,15.5 Z" id="Shape" fill-rule="nonzero"></path>
                    <path d="M84.1,10.4 C83.9,10.2 83.7,9.9 83.7,9.5 C83.7,9.1 83.8,8.8 84.1,8.6 C84.3,8.4 84.6,8.2 85,8.2 C85.3,8.2 85.6,8.3 85.9,8.6 C86.1,8.8 86.3,9.1 86.3,9.5 C86.3,9.9 86.2,10.1 85.9,10.4 C85.7,10.6 85.4,10.8 85,10.8 C84.6,10.8 84.3,10.7 84.1,10.4 Z" id="Path"></path>
                    <path d="M97.4,16.8 C96.5,16.3 95.8,15.6 95.3,14.7 C94.8,13.8 94.5,12.8 94.5,11.7 C94.5,10.6 94.7,9.6 95.2,8.7 C95.7,7.8 96.3,7.1 97.2,6.6 C98,6.1 99,5.8 100.1,5.8 C101.9,5.8 103.3,6.5 104.4,7.8 C104.5,7.9 104.6,8.1 104.6,8.2 C104.6,8.4 104.5,8.6 104.2,8.8 C104.1,8.9 103.9,8.9 103.8,8.9 C103.6,8.9 103.4,8.8 103.2,8.6 C102.8,8.1 102.3,7.8 101.8,7.5 C101.3,7.3 100.7,7.2 100.1,7.2 C99.3,7.2 98.6,7.4 98,7.8 C97.4,8.2 96.9,8.7 96.6,9.4 C96.3,10.1 96.1,10.8 96.1,11.7 C96.1,12.5 96.3,13.3 96.6,14 C97,14.7 97.4,15.2 98.1,15.6 C98.7,16 99.5,16.2 100.3,16.2 C101.4,16.2 102.3,15.9 103,15.3 C103.2,15.1 103.4,15.1 103.6,15.1 C103.8,15.1 103.9,15.2 104.1,15.3 C104.3,15.5 104.4,15.7 104.4,15.9 C104.4,16.1 104.3,16.2 104.2,16.4 C103.2,17.3 101.9,17.8 100.3,17.8 C99.3,17.5 98.3,17.3 97.4,16.8 Z" id="Path"></path>
                    <path d="M110.1,16.8 C109.2,16.3 108.5,15.6 108,14.7 C107.5,13.8 107.2,12.8 107.2,11.7 C107.2,10.6 107.5,9.6 108,8.7 C108.5,7.8 109.2,7.1 110.1,6.6 C111,6.1 112,5.8 113.1,5.8 C114.2,5.8 115.2,6.1 116.1,6.6 C117,7.1 117.7,7.8 118.2,8.7 C118.7,9.6 119,10.6 119,11.7 C119,12.8 118.7,13.8 118.2,14.7 C117.7,15.6 117,16.3 116.1,16.8 C115.2,17.3 114.2,17.6 113.1,17.6 C112,17.5 111,17.3 110.1,16.8 Z M115.3,15.5 C116,15.1 116.5,14.6 116.8,13.9 C117.2,13.2 117.4,12.5 117.4,11.6 C117.4,10.8 117.2,10 116.8,9.3 C116.4,8.6 115.9,8.1 115.3,7.7 C114.6,7.3 113.9,7.1 113.1,7.1 C112.3,7.1 111.6,7.3 110.9,7.7 C110.2,8.1 109.7,8.6 109.4,9.3 C109,10 108.8,10.7 108.8,11.6 C108.8,12.4 109,13.2 109.4,13.9 C109.8,14.6 110.3,15.1 110.9,15.5 C111.6,15.9 112.3,16.1 113.1,16.1 C113.9,16.1 114.7,15.9 115.3,15.5 Z" id="Shape" fill-rule="nonzero"></path>
                    <path d="M136.6,6.3 C137.2,6.7 137.7,7.3 138.1,8 C138.5,8.7 138.6,9.6 138.6,10.5 L138.6,16.6 C138.6,16.8 138.5,17 138.4,17.2 C138.3,17.3 138.1,17.4 137.8,17.4 C137.5,17.4 137.4,17.3 137.2,17.2 C137,17.1 137,16.9 137,16.6 L137,10.5 C137,9.5 136.7,8.7 136.2,8.1 C135.7,7.5 135,7.2 134.2,7.2 C133.3,7.2 132.6,7.5 132,8.1 C131.4,8.7 131.2,9.5 131.2,10.4 L131.2,16.5 C131.2,16.7 131.1,16.9 131,17.1 C130.9,17.2 130.7,17.3 130.4,17.3 C130.1,17.3 130,17.2 129.8,17.1 C129.6,17 129.6,16.8 129.6,16.5 L129.6,10.4 C129.6,9.4 129.3,8.6 128.8,8 C128.3,7.4 127.6,7.1 126.8,7.1 C125.9,7.1 125.2,7.4 124.6,8 C124,8.6 123.8,9.3 123.8,10.2 L123.8,16.5 C123.8,16.7 123.7,16.9 123.6,17.1 C123.5,17.2 123.3,17.3 123,17.3 C122.7,17.3 122.6,17.2 122.4,17.1 C122.2,17 122.2,16.8 122.2,16.5 L122.2,6.5 C122.2,6.3 122.3,6.1 122.4,5.9 C122.6,5.7 122.8,5.7 123,5.7 C123.2,5.7 123.4,5.8 123.6,5.9 C123.7,6.1 123.8,6.3 123.8,6.5 L123.8,7 C124.2,6.5 124.7,6.2 125.2,5.9 C125.7,5.7 126.3,5.5 127,5.5 C127.8,5.5 128.5,5.7 129.1,6 C129.7,6.4 130.2,6.8 130.6,7.5 C131,6.9 131.5,6.4 132.2,6 C132.9,5.6 133.6,5.5 134.4,5.5 C135.2,5.7 136,5.9 136.6,6.3 Z" id="Path"></path>
                    <path d="M152.6,6.1 C152.8,6.2 152.8,6.4 152.8,6.7 L152.8,16.7 C152.8,16.9 152.7,17.1 152.6,17.3 C152.4,17.5 152.2,17.5 152,17.5 C151.8,17.5 151.6,17.4 151.4,17.3 C151.3,17.1 151.2,16.9 151.2,16.7 L151.2,16 C150.7,16.5 150.2,16.9 149.5,17.2 C148.8,17.5 148.1,17.6 147.3,17.6 C146.3,17.6 145.4,17.4 144.6,17 C143.8,16.6 143.2,16 142.7,15.1 C142.2,14.3 142,13.3 142,12.2 L142,6.7 C142,6.5 142.1,6.3 142.2,6.1 C142.4,5.9 142.5,5.9 142.8,5.9 C143,5.9 143.2,6 143.4,6.1 C143.6,6.3 143.6,6.4 143.6,6.7 L143.6,12.2 C143.6,13.5 144,14.4 144.7,15.1 C145.4,15.8 146.3,16.1 147.4,16.1 C148.1,16.1 148.7,16 149.3,15.7 C149.9,15.4 150.3,15.1 150.6,14.6 C150.9,14.1 151.1,13.6 151.1,13 L151.1,6.7 C151.1,6.5 151.2,6.3 151.3,6.1 C151.4,6 151.6,5.9 151.9,5.9 C152.2,5.9 152.4,5.9 152.6,6.1 Z" id="Path"></path>
                    <path d="M164.8,6.3 C165.6,6.7 166.2,7.3 166.7,8.2 C167.2,9 167.4,10 167.4,11.1 L167.4,16.6 C167.4,16.8 167.3,17 167.2,17.2 C167,17.4 166.9,17.4 166.6,17.4 C166.4,17.4 166.2,17.3 166,17.2 C165.8,17 165.8,16.9 165.8,16.6 L165.8,11.1 C165.8,9.8 165.5,8.9 164.7,8.2 C164,7.5 163.1,7.2 162,7.2 C161.3,7.2 160.7,7.3 160.1,7.6 C159.5,7.9 159.1,8.2 158.8,8.7 C158.5,9.2 158.3,9.7 158.3,10.3 L158.3,16.6 C158.3,16.8 158.2,17 158.1,17.2 C158,17.3 157.8,17.4 157.5,17.4 C157.2,17.4 157.1,17.3 156.9,17.2 C156.7,17.1 156.7,16.9 156.7,16.6 L156.7,6.6 C156.7,6.4 156.8,6.2 156.9,6 C157.1,5.8 157.3,5.8 157.5,5.8 C157.7,5.8 157.9,5.9 158.1,6 C158.2,6.2 158.3,6.4 158.3,6.6 L158.3,7.3 C158.8,6.8 159.3,6.4 160,6.1 C160.7,5.8 161.4,5.7 162.2,5.7 C163.1,5.7 164,5.9 164.8,6.3 Z" id="Path"></path>
                    <path d="M171.3,3.3 C171.1,3.1 171,2.8 171,2.5 C171,2.2 171.1,1.9 171.3,1.7 C171.5,1.5 171.8,1.4 172.1,1.4 C172.4,1.4 172.7,1.5 172.9,1.7 C173.1,1.9 173.2,2.2 173.2,2.5 C173.2,2.8 173.1,3.1 172.9,3.3 C172.7,3.5 172.4,3.6 172.1,3.6 C171.8,3.6 171.6,3.5 171.3,3.3 Z M171.6,17.2 C171.4,17 171.4,16.8 171.4,16.6 L171.4,6.7 C171.4,6.5 171.5,6.3 171.6,6.1 C171.8,5.9 172,5.9 172.2,5.9 C172.4,5.9 172.6,6 172.8,6.1 C172.9,6.3 173,6.5 173,6.7 L173,16.6 C173,16.8 172.9,17 172.8,17.2 C172.7,17.4 172.5,17.4 172.2,17.4 C171.9,17.4 171.7,17.4 171.6,17.2 Z" id="Shape" fill-rule="nonzero"></path>
                    <path d="M179.3,16.8 C178.4,16.3 177.7,15.6 177.2,14.7 C176.7,13.8 176.4,12.8 176.4,11.7 C176.4,10.6 176.6,9.6 177.1,8.7 C177.6,7.8 178.2,7.1 179.1,6.6 C179.9,6.1 180.9,5.8 182,5.8 C183.8,5.8 185.2,6.5 186.3,7.8 C186.4,7.9 186.5,8.1 186.5,8.2 C186.5,8.4 186.4,8.6 186.1,8.8 C186,8.9 185.8,8.9 185.7,8.9 C185.5,8.9 185.3,8.8 185.1,8.6 C184.7,8.1 184.2,7.8 183.7,7.5 C183.2,7.3 182.6,7.2 182,7.2 C181.2,7.2 180.5,7.4 179.9,7.8 C179.3,8.2 178.8,8.7 178.5,9.4 C178.2,10.1 178,10.8 178,11.7 C178,12.5 178.2,13.3 178.5,14 C178.9,14.7 179.3,15.2 180,15.6 C180.6,16 181.4,16.2 182.2,16.2 C183.3,16.2 184.2,15.9 184.9,15.3 C185.1,15.1 185.3,15.1 185.5,15.1 C185.7,15.1 185.8,15.2 186,15.3 C186.2,15.5 186.3,15.7 186.3,15.9 C186.3,16.1 186.2,16.2 186.1,16.4 C185.1,17.3 183.8,17.8 182.2,17.8 C181.2,17.5 180.2,17.3 179.3,16.8 Z" id="Path"></path>
                    <path d="M198.1,6.5 C199,7 199.7,7.7 200.2,8.6 C200.7,9.5 201,10.5 201,11.6 L201,16.6 C201,16.8 200.9,17 200.8,17.2 C200.6,17.4 200.4,17.4 200.2,17.4 C200,17.4 199.8,17.3 199.6,17.2 C199.4,17.1 199.4,16.9 199.4,16.6 L199.4,15.3 C198.9,16 198.3,16.5 197.5,16.9 C196.7,17.3 195.9,17.5 195,17.5 C193.9,17.5 193,17.2 192.1,16.7 C191.2,16.2 190.5,15.5 190,14.6 C189.5,13.7 189.2,12.7 189.2,11.6 C189.2,10.5 189.5,9.5 190,8.6 C190.5,7.7 191.2,7 192.1,6.5 C193,6 194,5.7 195.1,5.7 C196.2,5.7 197.2,6 198.1,6.5 Z M197.3,15.5 C198,15.1 198.5,14.6 198.8,13.9 C199.2,13.2 199.4,12.5 199.4,11.6 C199.4,10.7 199.2,10 198.8,9.3 C198.4,8.6 197.9,8.1 197.3,7.7 C196.6,7.3 195.9,7.1 195.1,7.1 C194.3,7.1 193.6,7.3 192.9,7.7 C192.2,8.1 191.7,8.6 191.4,9.3 C191,10 190.8,10.7 190.8,11.6 C190.8,12.5 191,13.2 191.4,13.9 C191.8,14.6 192.3,15.1 192.9,15.5 C193.6,15.9 194.3,16.1 195.1,16.1 C195.9,16.1 196.6,15.9 197.3,15.5 Z" id="Shape" fill-rule="nonzero"></path>
                    <path d="M213,16.7 C213,17.2 212.8,17.4 212.3,17.4 L204.4,17.4 C203.9,17.4 203.7,17.2 203.7,16.7 C203.7,16.5 203.7,16.3 203.8,16.2 L210.8,7.4 L204.4,7.4 C203.9,7.4 203.7,7.2 203.7,6.7 C203.7,6.2 203.9,6 204.4,6 L212.3,6 C212.8,6 213,6.2 213,6.7 C213,6.9 212.9,7.1 212.8,7.3 L205.9,16.1 L212.3,16.1 C212.7,16 213,16.2 213,16.7 Z" id="Path"></path>
                    <path d="M216.1,3.3 C215.9,3.1 215.8,2.8 215.8,2.5 C215.8,2.2 215.9,1.9 216.1,1.7 C216.3,1.5 216.6,1.4 216.9,1.4 C217.2,1.4 217.5,1.5 217.7,1.7 C217.9,1.9 218,2.2 218,2.5 C218,2.8 217.9,3.1 217.7,3.3 C217.5,3.5 217.2,3.6 216.9,3.6 C216.6,3.6 216.3,3.5 216.1,3.3 Z M216.4,17.2 C216.2,17 216.2,16.8 216.2,16.6 L216.2,6.7 C216.2,6.5 216.3,6.3 216.4,6.1 C216.6,5.9 216.8,5.9 217,5.9 C217.2,5.9 217.4,6 217.6,6.1 C217.7,6.3 217.8,6.5 217.8,6.7 L217.8,16.6 C217.8,16.8 217.7,17 217.6,17.2 C217.5,17.4 217.3,17.4 217,17.4 C216.7,17.4 216.5,17.4 216.4,17.2 Z" id="Shape" fill-rule="nonzero"></path>
                    <path d="M224.2,16.8 C223.3,16.3 222.6,15.6 222.1,14.7 C221.6,13.8 221.3,12.8 221.3,11.7 C221.3,10.6 221.6,9.6 222.1,8.7 C222.6,7.8 223.3,7.1 224.2,6.6 C225.1,6.1 226.1,5.8 227.2,5.8 C228.3,5.8 229.3,6.1 230.2,6.6 C231.1,7.1 231.8,7.8 232.3,8.7 C232.8,9.6 233.1,10.6 233.1,11.7 C233.1,12.8 232.8,13.8 232.3,14.7 C231.8,15.6 231.1,16.3 230.2,16.8 C229.3,17.3 228.3,17.6 227.2,17.6 C226.1,17.6 225.1,17.3 224.2,16.8 Z M229.4,15.5 C230.1,15.1 230.6,14.6 230.9,13.9 C231.3,13.2 231.5,12.5 231.5,11.6 C231.5,10.8 231.3,10 230.9,9.3 C230.5,8.6 230,8.1 229.4,7.7 C228.7,7.3 228,7.1 227.2,7.1 C226.4,7.1 225.7,7.3 225,7.7 C224.3,8.1 223.8,8.6 223.5,9.3 C223.1,10 222.9,10.7 222.9,11.6 C222.9,12.4 223.1,13.2 223.5,13.9 C223.9,14.6 224.4,15.1 225,15.5 C225.7,15.9 226.4,16.1 227.2,16.1 C228,16.1 228.8,15.9 229.4,15.5 Z" id="Shape" fill-rule="nonzero"></path>
                    <path d="M244.5,6.3 C245.3,6.7 245.9,7.3 246.4,8.2 C246.9,9 247.1,10 247.1,11.1 L247.1,16.6 C247.1,16.8 247,17 246.9,17.2 C246.7,17.4 246.6,17.4 246.3,17.4 C246.1,17.4 245.9,17.3 245.7,17.2 C245.5,17 245.5,16.9 245.5,16.6 L245.5,11.1 C245.5,9.8 245.2,8.9 244.5,8.2 C243.8,7.5 242.9,7.2 241.8,7.2 C241.1,7.2 240.5,7.3 239.9,7.6 C239.3,7.9 238.9,8.2 238.6,8.7 C238.3,9.2 238.1,9.7 238.1,10.3 L238.1,16.6 C238.1,16.8 238,17 237.9,17.2 C237.8,17.3 237.6,17.4 237.3,17.4 C237.1,17.4 236.9,17.3 236.7,17.2 C236.5,17.1 236.5,16.9 236.5,16.6 L236.5,6.6 C236.5,6.4 236.6,6.2 236.7,6 C236.9,5.8 237.1,5.8 237.3,5.8 C237.5,5.8 237.7,5.9 237.9,6 C238,6.2 238.1,6.4 238.1,6.6 L238.1,7.3 C238.6,6.8 239.1,6.4 239.8,6.1 C240.5,5.8 241.2,5.7 242,5.7 C242.8,5.7 243.7,5.9 244.5,6.3 Z" id="Path"></path>
                    <path d="M258.4,6.5 C259.2,7 259.8,7.7 260.3,8.5 C260.7,9.4 261,10.3 261,11.4 C261,11.6 260.9,11.8 260.8,11.9 C260.7,12 260.5,12.1 260.2,12.1 L251.6,12.1 C251.7,13.3 252.2,14.2 253,14.9 C253.8,15.6 254.8,16 256,16 C256.5,16 257,15.9 257.5,15.7 C258,15.5 258.4,15.3 258.7,15 C258.9,14.9 259.1,14.8 259.3,14.8 C259.5,14.8 259.6,14.9 259.8,15 C260,15.2 260.1,15.4 260.1,15.6 C260.1,15.8 260,15.9 259.9,16.1 C259.4,16.5 258.8,16.8 258.1,17.1 C257.4,17.4 256.7,17.5 256,17.5 C254.9,17.5 253.9,17.2 253,16.7 C252.1,16.2 251.4,15.5 250.9,14.6 C250.4,13.7 250.1,12.7 250.1,11.6 C250.1,10.5 250.3,9.4 250.8,8.5 C251.3,7.6 251.9,6.9 252.8,6.4 C253.6,5.9 254.6,5.6 255.7,5.6 C256.6,5.7 257.6,6 258.4,6.5 Z M252.9,8.2 C252.2,8.9 251.8,9.7 251.6,10.8 L259.4,10.8 C259.3,9.7 258.9,8.8 258.2,8.2 C257.5,7.5 256.7,7.2 255.6,7.2 C254.5,7.2 253.6,7.5 252.9,8.2 Z" id="Shape" fill-rule="nonzero"></path>
                </g>
                <g id="name" transform="translate(178.000000, 57.000000)" fill="#575756">
                    <path d="M3.9,36.1 C2.2,36.1 0.8,34.7 0.8,33 L0.8,13.9 C0.8,12.2 2.2,10.8 3.9,10.8 C5.6,10.8 7,12.2 7,13.9 L7,33 C7,34.7 5.6,36.1 3.9,36.1 Z" id="Path"></path>
                    <path d="M35.3,23 C35.2,16 29.5,10.4 22.6,10.4 C15.8,10.4 10.3,15.7 9.9,22.3 C9.9,22.4 9.9,22.4 9.9,22.5 L9.9,22.7 C9.9,22.9 9.9,23 9.9,23.2 C9.9,23.2 9.9,23.2 9.9,23.2 L9.9,32.4 L9.9,33 C9.9,34.7 11.3,36.1 13,36.1 C14.7,36.1 16.1,34.7 16.1,33 L16.1,32.4 L16.1,23.2 L16.1,22.7 C16.3,19.3 19.2,16.6 22.7,16.6 C26.3,16.6 29.3,19.6 29.3,23.2 C29.3,23.2 29.3,23.2 29.3,23.2 L29.3,33 C29.3,34.7 30.7,36.1 32.4,36.1 C34.1,36.1 35.5,34.7 35.5,33 L35.5,23.2 C35.3,23.1 35.3,23.1 35.3,23 Z" id="Path"></path>
                    <path d="M79,36.1 C72,36.1 66.3,30.4 66.3,23.4 C66.3,16.4 72,10.7 79,10.7 C86,10.7 91.7,16.4 91.7,23.4 C91.8,30.4 86,36.1 79,36.1 Z M79,16.8 C75.4,16.8 72.4,19.8 72.4,23.4 C72.4,27 75.4,30 79,30 C82.6,30 85.6,27 85.6,23.4 C85.6,19.7 82.6,16.8 79,16.8 Z" id="Shape" fill-rule="nonzero"></path>
                    <path d="M63.5,23 C63.4,16 57.7,10.4 50.8,10.4 C44,10.4 38.5,15.7 38.1,22.3 C38.1,22.4 38.1,22.4 38.1,22.5 L38.1,22.7 C38.1,22.9 38.1,23 38.1,23.2 C38.1,23.2 38.1,23.2 38.1,23.2 L38.1,32.4 L38.1,33 C38.1,34.7 39.5,36.1 41.2,36.1 C42.9,36.1 44.3,34.7 44.3,33 L44.3,32.4 L44.3,23.2 L44.3,22.7 C44.5,19.3 47.4,16.6 50.9,16.6 C54.5,16.6 57.5,19.6 57.5,23.2 C57.5,23.2 57.5,23.2 57.5,23.2 L57.5,33 C57.5,34.7 58.9,36.1 60.6,36.1 C62.3,36.1 63.7,34.7 63.7,33 L63.7,23.2 C63.5,23.1 63.5,23.1 63.5,23 Z" id="Path"></path>
                    <path d="M111.9,29.9 L106.8,29.9 C103.4,29.7 100.7,26.8 100.7,23.3 C100.7,19.7 103.7,16.7 107.3,16.7 C107.3,16.7 107.3,16.7 107.3,16.7 L112.3,16.7 C114,16.7 115.4,15.3 115.4,13.6 C115.4,11.9 114,10.5 112.3,10.5 L107,10.5 C106.8,10.5 106.7,10.5 106.6,10.5 C99.9,10.9 94.6,16.4 94.6,23.2 C94.6,30 99.9,35.5 106.5,35.9 C106.6,35.9 106.6,35.9 106.7,35.9 L106.9,35.9 C107.1,35.9 107.2,35.9 107.4,35.9 C107.4,35.9 107.4,35.9 107.4,35.9 L112,35.9 C113.7,35.9 115.1,34.5 115.1,32.8 C115.1,31.1 113.6,29.9 111.9,29.9 Z" id="Path"></path>
                    <path d="M169.6,23 C169.5,16 163.8,10.4 156.9,10.4 C150.2,10.4 144.6,15.7 144.2,22.3 C144.2,22.4 144.2,22.4 144.2,22.5 L144.2,22.7 C144.2,22.9 144.2,23 144.2,23.2 C144.2,23.2 144.2,23.2 144.2,23.2 L144.2,32.4 L144.2,33 C144.2,34.7 145.6,36.1 147.3,36.1 C149,36.1 150.4,34.7 150.4,33 L150.4,32.4 L150.4,23.2 L150.4,22.7 C150.6,19.3 153.5,16.6 157,16.6 C160.6,16.6 163.6,19.6 163.6,23.2 C163.6,23.2 163.6,23.2 163.6,23.2 L163.6,33 C163.6,34.7 165,36.1 166.7,36.1 C168.4,36.1 169.8,34.7 169.8,33 L169.8,23.2 C169.7,23.1 169.6,23.1 169.6,23 Z" id="Path"></path>
                    <path d="M183.2,11 L178.6,11 L178.6,3.9 C178.6,2.2 177.2,0.8 175.5,0.8 C173.8,0.8 172.4,2.2 172.4,3.9 L172.4,33 C172.4,34.7 173.8,36.1 175.5,36.1 C177.2,36.1 178.6,34.7 178.6,33 L178.6,17.1 L183.2,17.1 C184.9,17.1 186.3,15.7 186.3,14 C186.3,12.3 184.9,11 183.2,11 Z" id="Path"></path>
                    <circle id="Oval" cx="3.9" cy="3.9" r="3.1"></circle>
                    <path d="M191.6,36.1 C189.9,36.1 188.5,34.7 188.5,33 L188.5,13.9 C188.5,12.2 189.9,10.8 191.6,10.8 C193.3,10.8 194.7,12.2 194.7,13.9 L194.7,33 C194.7,34.7 193.3,36.1 191.6,36.1 Z" id="Path"></path>
                    <circle id="Oval" cx="191.6" cy="3.9" r="3.1"></circle>
                    <path d="M260.9,23.5 C260.8,16.5 255.1,10.9 248.2,10.9 C244.3,10.9 240.9,12.6 238.5,15.4 C236.2,12.7 232.7,10.9 228.8,10.9 C221.8,10.9 216.1,16.5 216.1,23.5 C216.1,23.5 216.1,23.5 216.1,23.6 L216.1,33.1 C216.1,34.8 217.5,36.2 219.2,36.2 C220.9,36.2 222.3,34.8 222.3,33.1 L222.3,23.7 C222.3,20.1 225.3,17.1 228.9,17.1 C232.5,17.1 235.4,20 235.5,23.6 C235.5,23.6 235.5,23.6 235.5,23.6 L235.5,33.1 C235.5,34.8 236.9,36.2 238.6,36.2 C240.3,36.2 241.7,34.8 241.7,33.1 L241.7,23.7 C241.7,23.7 241.7,23.7 241.7,23.6 C241.7,20 244.7,17.1 248.3,17.1 C251.9,17.1 254.9,20.1 254.9,23.7 L254.9,33.1 C254.9,34.8 256.3,36.2 258,36.2 C259.7,36.2 261.1,34.8 261.1,33.1 L260.9,23.5 C260.9,23.5 260.9,23.5 260.9,23.5 Z" id="Path"></path>
                    <path d="M383.1,14.9 L380.5,14.9 L380.5,14 C380.5,12.3 379.1,10.9 377.4,10.9 C375.7,10.9 374.3,12.3 374.3,14 L374.3,33 C374.3,34.7 375.7,36.1 377.4,36.1 C379.1,36.1 380.5,34.7 380.5,33 L380.5,21 L383.1,21 C384.8,21 386.2,19.6 386.2,17.9 C386.2,16.2 384.8,14.9 383.1,14.9 Z" id="Path"></path>
                    <path d="M392.1,36.1 C390.4,36.1 389,34.7 389,33 L389,13.9 C389,12.2 390.4,10.8 392.1,10.8 C393.8,10.8 395.2,12.2 395.2,13.9 L395.2,33 C395.1,34.7 393.8,36.1 392.1,36.1 Z" id="Path"></path>
                    <circle id="Oval" cx="392.1" cy="3.9" r="3.1"></circle>
                    <circle id="Oval" cx="205.5" cy="22.8" r="3.1"></circle>
                    <path d="M313.1,20.3 L298.9,20.3 C300,18.2 302.2,16.8 304.7,16.8 C306,16.8 307.3,17.2 308.4,17.9 C309.8,18.9 311.7,18.5 312.7,17.1 C313.7,15.7 313.3,13.8 311.9,12.8 C309.8,11.4 307.3,10.6 304.8,10.6 C297.8,10.6 292.1,16.3 292.1,23.3 C292.1,25 293.5,26.4 295.2,26.4 L309.4,26.4 C308.3,28.5 306.1,29.9 303.6,29.9 C302.3,29.9 301,29.5 299.9,28.8 C298.5,27.8 296.6,28.2 295.6,29.6 C294.6,31 295,32.9 296.4,33.9 C298.5,35.3 301,36.1 303.5,36.1 C310.5,36.1 316.2,30.4 316.2,23.4 C316.2,21.7 314.8,20.3 313.1,20.3 Z" id="Path"></path>
                    <path d="M340.1,20.3 L325.9,20.3 C327,18.2 329.2,16.8 331.7,16.8 C333,16.8 334.3,17.2 335.4,17.9 C336.8,18.9 338.7,18.5 339.7,17.1 C340.7,15.7 340.3,13.8 338.9,12.8 C336.8,11.4 334.3,10.6 331.8,10.6 C324.8,10.6 319.1,16.3 319.1,23.3 C319.1,25 320.5,26.4 322.2,26.4 L336.4,26.4 C335.3,28.5 333.1,29.9 330.6,29.9 C329.3,29.9 328,29.5 326.9,28.8 C325.5,27.8 323.6,28.2 322.6,29.6 C321.6,31 322,32.9 323.4,33.9 C325.5,35.3 328,36.1 330.5,36.1 C337.5,36.1 343.2,30.4 343.2,23.4 C343.2,21.7 341.8,20.3 340.1,20.3 Z" id="Path"></path>
                    <path d="M276.6,36.3 C269.6,36.3 263.9,30.6 263.9,23.6 C263.9,16.6 269.6,10.9 276.6,10.9 C283.6,10.9 289.3,16.6 289.3,23.6 C289.3,25.3 287.9,26.7 286.2,26.7 L276.8,26.7 C275.1,26.7 273.7,25.3 273.7,23.6 C273.7,21.9 275.1,20.5 276.8,20.5 L282.3,20.5 C281.2,18.4 279,17 276.5,17 C272.9,17 269.9,20 269.9,23.6 C269.9,27.2 272.9,30.2 276.5,30.2 C277.7,30.2 279,29.8 280,29.2 C281.4,28.3 283.3,28.7 284.2,30.2 C285.1,31.6 284.7,33.5 283.2,34.4 C281.3,35.6 279,36.3 276.6,36.3 Z" id="Path"></path>
                    <path d="M358.7,36.3 C351.7,36.3 346,30.6 346,23.6 C346,16.6 351.7,10.9 358.7,10.9 C365.7,10.9 371.4,16.6 371.4,23.6 C371.4,25.3 370,26.7 368.3,26.7 L358.9,26.7 C357.2,26.7 355.8,25.3 355.8,23.6 C355.8,21.9 357.2,20.5 358.9,20.5 L364.4,20.5 C363.3,18.4 361.1,17 358.6,17 C355,17 352,20 352,23.6 C352,27.2 355,30.2 358.6,30.2 C359.8,30.2 361.1,29.8 362.1,29.2 C363.5,28.3 365.4,28.7 366.3,30.2 C367.2,31.6 366.8,33.5 365.3,34.4 C363.4,35.6 361.1,36.3 358.7,36.3 Z" id="Path"></path>
                    <path d="M128.7,36.3 C121.7,36.3 116,30.6 116,23.6 C116,16.6 121.7,10.9 128.7,10.9 C135.7,10.9 141.4,16.6 141.4,23.6 C141.4,25.3 140,26.7 138.3,26.7 L129,26.7 C127.3,26.7 125.9,25.3 125.9,23.6 C125.9,21.9 127.3,20.5 129,20.5 L134.5,20.5 C133.4,18.4 131.2,17 128.7,17 C125.1,17 122.1,20 122.1,23.6 C122.1,27.2 125.1,30.2 128.7,30.2 C129.9,30.2 131.2,29.8 132.2,29.2 C133.6,28.3 135.5,28.7 136.4,30.2 C137.3,31.6 136.9,33.5 135.4,34.4 C133.5,35.6 131.2,36.3 128.7,36.3 Z" id="Path"></path>
                </g>
                <g id="isologo">
                    <path d="M22.5,84 C22.5,71.3 32.8,61 45.5,61 C58.2,61 68.5,71.3 68.5,84 L90,84 C90,59.4 70,39.4 45.4,39.4 C20.8,39.4 1,59.5 1,84 L22.5,84 Z" id="Path" fill="#FAB900"></path>
                    <path d="M79.3,128 C73.4,128 68.5,123.2 68.5,117.2 L68.5,84 C68.5,78.1 73.3,73.2 79.3,73.2 C85.2,73.2 90.1,78 90.1,84 L90.1,117.2 C90,123.2 85.2,128 79.3,128 Z" id="Path" fill="#05AEAA"></path>
                    <path d="M90,84 C90,71.3 100.3,61 113,61 C125.7,61 136,71.3 136,84 L157.5,84 C157.5,59.4 137.5,39.4 112.9,39.4 C88.3,39.4 68.3,59.4 68.3,84 L90,84 Z" id="Path" fill="#E62C5F"></path>
                    <path d="M146.9,128 C141,128 136.1,123.2 136.1,117.2 L136.1,84 C136.1,78.1 140.9,73.2 146.9,73.2 C152.8,73.2 157.7,78 157.7,84 L157.7,117.2 C157.6,123.2 152.8,128 146.9,128 Z" id="Path" fill="#6CC6E2"></path>
                    <circle id="Oval" fill="#05AEAA" cx="146.9" cy="83.9" r="10.8"></circle>
                    <circle id="Oval" fill="#E5333A" cx="11.7" cy="11.9" r="11"></circle>
                    <path d="M79.3,55.1 C72.7,62.8 68.6,72.9 68.5,83.8 C68.5,83.9 68.5,84 68.5,84 L90,84 C90,83.9 90,83.8 90,83.8 C90,72.8 85.9,62.8 79.3,55.1 Z" id="Path" fill="#EB622B"></path>
                    <circle id="Oval" fill="#F6B707" cx="79.3" cy="83.9" r="10.8"></circle>
                    <path d="M11.7,128 C5.8,128 0.9,123.2 0.9,117.2 L0.9,43.4 C0.9,37.5 5.7,32.6 11.7,32.6 C17.7,32.6 22.5,37.4 22.5,43.4 L22.5,117.2 C22.5,123.2 17.7,128 11.7,128 Z" id="Path" fill="#E5333A"></path>
                    <path d="M1,83.8 C1,83.8 1,83.9 1,83.9 C1,83.9 1,83.9 1,83.9 C1,83.9 1,84 1,84 C1.1,89.9 5.9,94.6 11.8,94.6 C17.7,94.6 22.5,89.9 22.6,84 L22.6,45.9 C9.7,53.7 1.1,67.7 1,83.8 Z" id="Path" fill="#EB622B"></path>
                </g>
            </g>
        </g>
    </g>
</svg>