<?xml version="1.0" encoding="UTF-8"?>
<svg width="267px" height="183px" viewBox="0 0 267 183" version="1.1" xmlns="http://www.w3.org/2000/svg" xmlns:xlink="http://www.w3.org/1999/xlink">
    <!-- Generator: Sketch 53 (72520) - https://sketchapp.com -->
    <title>isologo</title>
    <desc>Created with Sketch.</desc>
    <g id="Page-1" stroke="none" stroke-width="1" fill="none" fill-rule="evenodd">
        <g id="Artboard" transform="translate(-9.000000, -10.000000)" fill-rule="nonzero">
            <g id="isologo" transform="translate(9.000000, 10.000000)">
                <path d="M5.7,166.5 C6.8,166.5 7.8,166.7 8.7,167.2 C9.6,167.7 10.3,168.4 10.8,169.3 C11.3,170.2 11.6,171.2 11.6,172.3 L11.6,176.6 C11.6,177.7 11.4,178.7 10.9,179.6 C10.4,180.5 9.7,181.2 8.8,181.8 C7.9,182.3 6.9,182.6 5.8,182.6 C4.7,182.6 3.8,182.4 2.9,182 C2.1,181.6 1.4,181 0.8,180.3 C0.7,180.2 0.6,180 0.6,179.8 C0.6,179.6 0.7,179.4 0.9,179.3 C1,179.2 1.2,179.2 1.4,179.2 C1.5,179.2 1.7,179.2 1.8,179.3 C1.9,179.4 2,179.4 2.1,179.5 C2.5,180 3.1,180.4 3.7,180.7 C4.3,181 5.1,181.1 5.9,181.1 C6.7,181.1 7.4,180.9 8,180.5 C8.6,180.1 9.1,179.6 9.5,178.9 C9.9,178.2 10,177.4 10,176.5 L10,175.6 C9.6,176.4 9,177 8.2,177.5 C7.4,178 6.6,178.2 5.6,178.2 C4.5,178.2 3.5,178 2.7,177.5 C1.8,177 1.2,176.3 0.7,175.4 C0.2,174.5 0,173.5 0,172.4 C0,171.3 0.3,170.3 0.8,169.4 C1.3,168.5 2,167.8 2.9,167.3 C3.6,166.8 4.6,166.5 5.7,166.5 Z M5.7,176.7 C6.5,176.7 7.2,176.5 7.9,176.1 C8.5,175.7 9,175.2 9.4,174.5 C9.8,173.8 9.9,173.1 9.9,172.2 C9.9,171.4 9.7,170.6 9.4,169.9 C9,169.2 8.5,168.7 7.9,168.3 C7.3,167.9 6.5,167.7 5.7,167.7 C4.9,167.7 4.1,167.9 3.5,168.3 C2.9,168.7 2.4,169.2 2,169.9 C1.6,170.6 1.5,171.3 1.5,172.2 C1.5,173 1.7,173.8 2,174.5 C2.4,175.2 2.9,175.7 3.5,176.1 C4.1,176.5 4.8,176.7 5.7,176.7 Z M19.8,166.5 C20.4,166.5 20.9,166.6 21.2,166.7 C21.5,166.9 21.7,167.1 21.7,167.4 C21.7,167.5 21.7,167.5 21.7,167.6 C21.6,167.8 21.6,167.9 21.4,168 C21.3,168.1 21.1,168.1 20.9,168.1 C20.8,168.1 20.6,168.1 20.2,168.1 C20.1,168.1 19.9,168.1 19.7,168.1 C18.7,168.1 17.8,168.4 17.1,168.9 C16.4,169.5 16.1,170.2 16.1,171.1 L16.1,177.4 C16.1,177.7 16,177.8 15.9,178 C15.8,178.1 15.6,178.2 15.3,178.2 C15,178.2 14.9,178.1 14.7,178 C14.6,177.9 14.5,177.7 14.5,177.4 L14.5,167.5 C14.5,167.2 14.6,167.1 14.7,166.9 C14.8,166.8 15,166.7 15.3,166.7 C15.6,166.7 15.7,166.8 15.9,166.9 C16,167 16.1,167.2 16.1,167.5 L16.1,168.4 C16.5,167.8 17,167.4 17.7,167 C18.4,166.6 19.1,166.5 19.8,166.5 Z M28.4,166.5 C29.5,166.5 30.5,166.8 31.4,167.3 C32.3,167.8 33,168.5 33.5,169.4 C34,170.3 34.3,171.3 34.3,172.4 L34.3,177.3 C34.3,177.5 34.2,177.7 34.1,177.9 C33.9,178.1 33.7,178.1 33.5,178.1 C33.3,178.1 33.1,178 32.9,177.9 C32.7,177.8 32.7,177.6 32.7,177.3 L32.7,176 C32.2,176.7 31.6,177.2 30.8,177.6 C30,178 29.2,178.2 28.3,178.2 C27.2,178.2 26.3,177.9 25.4,177.4 C24.5,176.9 23.9,176.2 23.4,175.3 C22.9,174.4 22.7,173.4 22.7,172.3 C22.7,171.2 23,170.2 23.5,169.3 C24,168.4 24.7,167.7 25.6,167.2 C26.3,166.8 27.3,166.5 28.4,166.5 Z M28.4,176.7 C29.2,176.7 29.9,176.5 30.6,176.1 C31.2,175.7 31.8,175.2 32.1,174.5 C32.5,173.8 32.7,173.1 32.7,172.3 C32.7,171.5 32.5,170.7 32.1,170.1 C31.7,169.4 31.2,168.9 30.6,168.5 C30,168.1 29.2,167.9 28.4,167.9 C27.6,167.9 26.9,168.1 26.2,168.5 C25.5,168.9 25,169.4 24.7,170.1 C24.3,170.8 24.1,171.5 24.1,172.3 C24.1,173.1 24.3,173.9 24.7,174.5 C25.1,175.2 25.6,175.7 26.2,176.1 C26.9,176.5 27.6,176.7 28.4,176.7 Z M42.2,167 C42.4,167 42.6,167.1 42.7,167.2 C42.8,167.3 42.9,167.5 42.9,167.7 C42.9,167.9 42.8,168.1 42.7,168.2 C42.6,168.3 42.4,168.4 42.2,168.4 L39.7,168.4 L39.7,177.2 C39.7,177.4 39.6,177.6 39.5,177.8 C39.3,178 39.1,178 38.9,178 C38.7,178 38.5,177.9 38.3,177.8 C38.1,177.6 38.1,177.5 38.1,177.2 L38.1,168.4 L36.7,168.4 C36.5,168.4 36.3,168.3 36.2,168.2 C36.1,168.1 36,167.9 36,167.7 C36,167.5 36.1,167.3 36.2,167.2 C36.3,167.1 36.5,167 36.7,167 L38,167 L38,166.5 C38,165 38.4,163.8 39.2,162.9 C40,162 41.3,161.6 43,161.6 C43.9,161.6 44.7,161.7 45.3,162 C46,162.3 46.3,162.7 46.3,163.1 C46.3,163.7 46,164 45.3,164 C45.1,164 44.9,164 44.7,163.9 C44.5,163.8 44.3,163.7 44.1,163.5 C43.8,163.3 43.6,163.1 43.3,163 C43.1,162.9 42.8,162.8 42.5,162.8 C41.6,162.8 40.9,163.1 40.4,163.6 C39.9,164.2 39.6,165.1 39.6,166.4 L39.6,166.9 L42.2,166.9 L42.2,167 Z M45.4,166.6 C45.6,166.6 45.8,166.7 46,166.8 C46.1,167 46.2,167.2 46.2,167.4 L46.2,177.2 C46.2,177.4 46.1,177.6 46,177.8 C45.9,178 45.7,178 45.4,178 C45.2,178 45,177.9 44.8,177.8 C44.6,177.6 44.6,177.5 44.6,177.2 L44.6,167.4 C44.6,167.2 44.7,167 44.8,166.8 C44.9,166.7 45.1,166.6 45.4,166.6 Z M55.3,178.2 C54.2,178.2 53.2,177.9 52.4,177.4 C51.5,176.9 50.8,176.2 50.4,175.3 C49.9,174.4 49.7,173.4 49.7,172.3 C49.7,171.2 49.9,170.2 50.4,169.3 C50.9,168.4 51.5,167.7 52.4,167.2 C53.2,166.7 54.2,166.4 55.2,166.4 C56.9,166.4 58.4,167.1 59.5,168.4 C59.6,168.5 59.7,168.7 59.7,168.8 C59.7,169 59.6,169.2 59.3,169.4 C59.2,169.5 59,169.5 58.9,169.5 C58.7,169.5 58.5,169.4 58.3,169.2 C57.9,168.7 57.4,168.4 56.9,168.2 C56.4,168 55.8,167.9 55.2,167.9 C54.4,167.9 53.7,168.1 53.1,168.5 C52.5,168.9 52,169.4 51.7,170.1 C51.4,170.8 51.2,171.5 51.2,172.4 C51.2,173.2 51.4,174 51.7,174.6 C52,175.3 52.5,175.8 53.2,176.2 C53.8,176.6 54.6,176.8 55.4,176.8 C56.5,176.8 57.4,176.5 58.1,175.9 C58.3,175.7 58.5,175.7 58.7,175.7 C58.9,175.7 59,175.8 59.2,175.9 C59.4,176.1 59.5,176.3 59.5,176.5 C59.5,176.7 59.4,176.8 59.3,177 C58.1,177.7 56.8,178.2 55.3,178.2 Z M67.9,166.5 C69,166.5 70,166.8 70.9,167.3 C71.8,167.8 72.5,168.5 73,169.4 C73.5,170.3 73.8,171.3 73.8,172.4 L73.8,177.3 C73.8,177.5 73.7,177.7 73.6,177.9 C73.4,178.1 73.2,178.1 73,178.1 C72.8,178.1 72.6,178 72.4,177.9 C72.2,177.8 72.2,177.6 72.2,177.3 L72.2,176 C71.7,176.7 71.1,177.2 70.3,177.6 C69.5,178 68.7,178.2 67.8,178.2 C66.7,178.2 65.8,177.9 64.9,177.4 C64,176.9 63.4,176.2 62.9,175.3 C62.4,174.4 62.2,173.4 62.2,172.3 C62.2,171.2 62.5,170.2 63,169.3 C63.5,168.4 64.2,167.7 65.1,167.2 C65.8,166.8 66.8,166.5 67.9,166.5 Z M67.9,176.7 C68.7,176.7 69.4,176.5 70.1,176.1 C70.7,175.7 71.3,175.2 71.6,174.5 C72,173.8 72.2,173.1 72.2,172.3 C72.2,171.5 72,170.7 71.6,170.1 C71.2,169.4 70.7,168.9 70.1,168.5 C69.5,168.1 68.7,167.9 67.9,167.9 C67.1,167.9 66.4,168.1 65.7,168.5 C65,168.9 64.5,169.4 64.2,170.1 C63.8,170.8 63.6,171.5 63.6,172.3 C63.6,173.1 63.8,173.9 64.2,174.5 C64.6,175.2 65.1,175.7 65.7,176.1 C66.3,176.5 67.1,176.7 67.9,176.7 Z M87.9,166.5 C88.9,166.5 89.9,166.7 90.7,167.2 C91.5,167.7 92.1,168.4 92.6,169.2 C93,170.1 93.3,171 93.3,172.1 C93.3,172.3 93.2,172.5 93.1,172.6 C93,172.7 92.8,172.8 92.6,172.8 L84.1,172.8 C84.2,173.9 84.7,174.9 85.4,175.6 C86.2,176.3 87.2,176.7 88.3,176.7 C88.8,176.7 89.3,176.6 89.8,176.4 C90.3,176.2 90.7,176 91,175.7 C91.2,175.6 91.4,175.5 91.6,175.5 C91.8,175.5 91.9,175.6 92.1,175.7 C92.3,175.9 92.4,176.1 92.4,176.3 C92.4,176.5 92.3,176.6 92.2,176.8 C91.7,177.2 91.2,177.5 90.4,177.8 C89.7,178.1 89,178.2 88.3,178.2 C87.2,178.2 86.2,178 85.3,177.5 C84.4,177 83.7,176.3 83.2,175.4 C82.7,174.5 82.5,173.5 82.5,172.4 C82.5,171.3 82.7,170.3 83.2,169.4 C83.7,168.5 84.3,167.8 85.2,167.3 C85.9,166.8 86.8,166.5 87.9,166.5 Z M87.9,168 C86.8,168 86,168.3 85.3,169 C84.6,169.7 84.2,170.5 84,171.6 L91.7,171.6 C91.6,170.5 91.2,169.7 90.5,169 C89.8,168.3 89,168 87.9,168 Z M107.2,178.2 C106.1,178.2 105.1,177.9 104.3,177.4 C103.4,176.9 102.7,176.2 102.3,175.3 C101.8,174.4 101.6,173.4 101.6,172.3 C101.6,171.2 101.8,170.2 102.3,169.3 C102.8,168.4 103.4,167.7 104.3,167.2 C105.1,166.7 106.1,166.4 107.1,166.4 C108.8,166.4 110.3,167.1 111.4,168.4 C111.5,168.5 111.6,168.7 111.6,168.8 C111.6,169 111.5,169.2 111.2,169.4 C111.1,169.5 110.9,169.5 110.8,169.5 C110.6,169.5 110.4,169.4 110.2,169.2 C109.8,168.7 109.3,168.4 108.8,168.2 C108.3,168 107.7,167.9 107.1,167.9 C106.3,167.9 105.6,168.1 105,168.5 C104.4,168.9 103.9,169.4 103.6,170.1 C103.3,170.8 103.1,171.5 103.1,172.4 C103.1,173.2 103.3,174 103.6,174.6 C103.9,175.3 104.4,175.8 105.1,176.2 C105.7,176.6 106.5,176.8 107.3,176.8 C108.4,176.8 109.3,176.5 110,175.9 C110.2,175.7 110.4,175.7 110.6,175.7 C110.8,175.7 110.9,175.8 111.1,175.9 C111.3,176.1 111.4,176.3 111.4,176.5 C111.4,176.7 111.3,176.8 111.2,177 C110,177.7 108.7,178.2 107.2,178.2 Z M119.8,178.2 C118.7,178.2 117.7,177.9 116.8,177.4 C115.9,176.9 115.2,176.2 114.7,175.3 C114.2,174.4 113.9,173.4 113.9,172.3 C113.9,171.2 114.2,170.2 114.7,169.3 C115.2,168.4 115.9,167.7 116.8,167.2 C117.7,166.7 118.7,166.4 119.8,166.4 C120.9,166.4 121.9,166.7 122.8,167.2 C123.7,167.7 124.4,168.4 124.9,169.3 C125.4,170.2 125.7,171.2 125.7,172.3 C125.7,173.4 125.4,174.4 124.9,175.3 C124.4,176.2 123.7,176.9 122.8,177.4 C121.9,178 120.9,178.2 119.8,178.2 Z M119.8,176.7 C120.6,176.7 121.3,176.5 122,176.1 C122.6,175.7 123.1,175.2 123.5,174.5 C123.9,173.8 124,173.1 124,172.3 C124,171.5 123.8,170.7 123.5,170 C123.1,169.3 122.6,168.8 122,168.4 C121.4,168 120.6,167.8 119.8,167.8 C119,167.8 118.3,168 117.6,168.4 C116.9,168.8 116.4,169.3 116.1,170 C115.7,170.7 115.5,171.4 115.5,172.3 C115.5,173.1 115.7,173.9 116.1,174.5 C116.5,175.2 117,175.7 117.6,176.1 C118.3,176.5 119,176.7 119.8,176.7 Z M140.9,166.5 C141.7,166.5 142.5,166.7 143.1,167.1 C143.7,167.5 144.2,168 144.6,168.8 C145,169.5 145.1,170.4 145.1,171.3 L145.1,177.3 C145.1,177.5 145,177.7 144.9,177.9 C144.8,178.1 144.6,178.1 144.3,178.1 C144.1,178.1 143.9,178 143.7,177.9 C143.5,177.8 143.5,177.6 143.5,177.3 L143.5,171.3 C143.5,170.3 143.2,169.5 142.7,168.9 C142.2,168.3 141.5,168 140.7,168 C139.8,168 139.1,168.3 138.6,168.9 C138.1,169.5 137.8,170.3 137.8,171.2 L137.8,177.2 C137.8,177.4 137.7,177.6 137.6,177.8 C137.5,177.9 137.3,178 137,178 C136.8,178 136.6,177.9 136.4,177.8 C136.2,177.7 136.2,177.5 136.2,177.2 L136.2,171.2 C136.2,170.2 135.9,169.4 135.4,168.8 C134.9,168.2 134.2,167.9 133.4,167.9 C132.5,167.9 131.8,168.2 131.3,168.8 C130.7,169.4 130.5,170.1 130.5,171 L130.5,177.2 C130.5,177.4 130.4,177.6 130.3,177.8 C130.2,177.9 130,178 129.7,178 C129.5,178 129.3,177.9 129.1,177.8 C128.9,177.7 128.9,177.5 128.9,177.2 L128.9,167.3 C128.9,167.1 129,166.9 129.1,166.7 C129.3,166.5 129.4,166.5 129.7,166.5 C129.9,166.5 130.1,166.6 130.3,166.7 C130.4,166.9 130.5,167.1 130.5,167.3 L130.5,167.8 C130.9,167.4 131.4,167 131.9,166.8 C132.4,166.6 133,166.4 133.7,166.4 C134.5,166.4 135.2,166.6 135.8,166.9 C136.4,167.3 136.9,167.7 137.3,168.4 C137.7,167.8 138.2,167.3 138.9,166.9 C139.3,166.7 140.1,166.5 140.9,166.5 Z M158.3,166.6 C158.5,166.6 158.7,166.7 158.9,166.8 C159.1,166.9 159.1,167.1 159.1,167.4 L159.1,177.3 C159.1,177.5 159,177.7 158.9,177.9 C158.7,178.1 158.5,178.1 158.3,178.1 C158.1,178.1 157.9,178 157.7,177.9 C157.6,177.7 157.5,177.6 157.5,177.3 L157.5,176.6 C157,177.1 156.5,177.5 155.8,177.8 C155.1,178.1 154.4,178.2 153.7,178.2 C152.7,178.2 151.8,178 151,177.6 C150.2,177.2 149.6,176.6 149.1,175.8 C148.7,175 148.4,174 148.4,172.9 L148.4,167.4 C148.4,167.2 148.5,167 148.6,166.8 C148.8,166.6 148.9,166.6 149.2,166.6 C149.4,166.6 149.6,166.7 149.8,166.8 C150,167 150,167.1 150,167.4 L150,172.9 C150,174.1 150.3,175.1 151,175.7 C151.7,176.4 152.6,176.7 153.7,176.7 C154.4,176.7 155,176.6 155.6,176.3 C156.2,176 156.6,175.7 156.9,175.2 C157.2,174.7 157.4,174.2 157.4,173.6 L157.4,167.4 C157.4,167.2 157.5,167 157.6,166.8 C157.9,166.7 158.1,166.6 158.3,166.6 Z M168.3,166.5 C169.3,166.5 170.2,166.7 171,167.1 C171.8,167.5 172.4,168.1 172.9,168.9 C173.3,169.7 173.6,170.7 173.6,171.8 L173.6,177.3 C173.6,177.5 173.5,177.7 173.4,177.9 C173.2,178.1 173.1,178.1 172.8,178.1 C172.6,178.1 172.4,178 172.2,177.9 C172,177.7 172,177.6 172,177.3 L172,171.8 C172,170.6 171.7,169.6 171,169 C170.3,168.3 169.4,168 168.3,168 C167.6,168 167,168.1 166.4,168.4 C165.8,168.7 165.4,169 165.1,169.5 C164.8,170 164.6,170.5 164.6,171.1 L164.6,177.3 C164.6,177.5 164.5,177.7 164.4,177.9 C164.3,178.1 164.1,178.1 163.8,178.1 C163.6,178.1 163.4,178 163.2,177.9 C163,177.8 163,177.6 163,177.3 L163,167.4 C163,167.2 163.1,167 163.2,166.8 C163.4,166.6 163.5,166.6 163.8,166.6 C164,166.6 164.2,166.7 164.4,166.8 C164.5,167 164.6,167.2 164.6,167.4 L164.6,168.1 C165.1,167.6 165.6,167.2 166.3,166.9 C166.9,166.6 167.6,166.5 168.3,166.5 Z M178.2,164.4 C177.9,164.4 177.6,164.3 177.4,164.1 C177.2,163.9 177.1,163.6 177.1,163.3 C177.1,163 177.2,162.7 177.4,162.5 C177.6,162.3 177.9,162.2 178.2,162.2 C178.5,162.2 178.8,162.3 179,162.5 C179.2,162.7 179.3,163 179.3,163.3 C179.3,163.6 179.2,163.9 179,164.1 C178.8,164.3 178.6,164.4 178.2,164.4 Z M178.3,178.1 C178.1,178.1 177.9,178 177.7,177.9 C177.5,177.7 177.5,177.6 177.5,177.3 L177.5,167.5 C177.5,167.3 177.6,167.1 177.7,166.9 C177.9,166.7 178,166.7 178.3,166.7 C178.5,166.7 178.7,166.8 178.9,166.9 C179,167.1 179.1,167.3 179.1,167.5 L179.1,177.3 C179.1,177.5 179,177.7 178.9,177.9 C178.7,178 178.5,178.1 178.3,178.1 Z M188.3,178.2 C187.2,178.2 186.2,177.9 185.4,177.4 C184.5,176.9 183.8,176.2 183.4,175.3 C182.9,174.4 182.7,173.4 182.7,172.3 C182.7,171.2 182.9,170.2 183.4,169.3 C183.9,168.4 184.5,167.7 185.4,167.2 C186.2,166.7 187.2,166.4 188.2,166.4 C189.9,166.4 191.4,167.1 192.5,168.4 C192.6,168.5 192.7,168.7 192.7,168.8 C192.7,169 192.6,169.2 192.3,169.4 C192.2,169.5 192,169.5 191.9,169.5 C191.7,169.5 191.5,169.4 191.3,169.2 C190.9,168.7 190.4,168.4 189.9,168.2 C189.4,168 188.8,167.9 188.2,167.9 C187.4,167.9 186.7,168.1 186.1,168.5 C185.5,168.9 185,169.4 184.7,170.1 C184.4,170.8 184.2,171.5 184.2,172.4 C184.2,173.2 184.4,174 184.7,174.6 C185,175.3 185.5,175.8 186.2,176.2 C186.8,176.6 187.6,176.8 188.4,176.8 C189.5,176.8 190.4,176.5 191.1,175.9 C191.3,175.7 191.5,175.7 191.7,175.7 C191.9,175.7 192,175.8 192.2,175.9 C192.4,176.1 192.5,176.3 192.5,176.5 C192.5,176.7 192.4,176.8 192.3,177 C191.1,177.7 189.8,178.2 188.3,178.2 Z M200.9,166.5 C202,166.5 203,166.8 203.9,167.3 C204.8,167.8 205.5,168.5 206,169.4 C206.5,170.3 206.8,171.3 206.8,172.4 L206.8,177.3 C206.8,177.5 206.7,177.7 206.6,177.9 C206.4,178.1 206.2,178.1 206,178.1 C205.8,178.1 205.6,178 205.4,177.9 C205.2,177.8 205.2,177.6 205.2,177.3 L205.2,176 C204.7,176.7 204.1,177.2 203.3,177.6 C202.5,178 201.7,178.2 200.8,178.2 C199.7,178.2 198.8,177.9 197.9,177.4 C197,176.9 196.4,176.2 195.9,175.3 C195.4,174.4 195.2,173.4 195.2,172.3 C195.2,171.2 195.5,170.2 196,169.3 C196.5,168.4 197.2,167.7 198.1,167.2 C198.8,166.8 199.8,166.5 200.9,166.5 Z M200.9,176.7 C201.7,176.7 202.4,176.5 203.1,176.1 C203.7,175.7 204.3,175.2 204.6,174.5 C205,173.8 205.2,173.1 205.2,172.3 C205.2,171.5 205,170.7 204.6,170.1 C204.2,169.4 203.7,168.9 203.1,168.5 C202.5,168.1 201.7,167.9 200.9,167.9 C200.1,167.9 199.4,168.1 198.7,168.5 C198,168.9 197.5,169.4 197.2,170.1 C196.8,170.8 196.6,171.5 196.6,172.3 C196.6,173.1 196.8,173.9 197.2,174.5 C197.6,175.2 198.1,175.7 198.7,176.1 C199.4,176.5 200.1,176.7 200.9,176.7 Z M217.9,176.6 C218.4,176.6 218.6,176.8 218.6,177.3 C218.6,177.8 218.4,178 217.9,178 L210.1,178 C209.6,178 209.4,177.8 209.4,177.3 C209.4,177.1 209.4,176.9 209.5,176.8 L216.4,168 L210,168 C209.5,168 209.3,167.8 209.3,167.3 C209.3,166.8 209.5,166.6 210,166.6 L217.8,166.6 C218.3,166.6 218.5,166.8 218.5,167.3 C218.5,167.5 218.4,167.7 218.3,167.8 L211.5,176.5 L217.9,176.5 L217.9,176.6 Z M222.6,164.4 C222.3,164.4 222,164.3 221.8,164.1 C221.6,163.9 221.5,163.6 221.5,163.3 C221.5,163 221.6,162.7 221.8,162.5 C222,162.3 222.3,162.2 222.6,162.2 C222.9,162.2 223.2,162.3 223.4,162.5 C223.6,162.7 223.7,163 223.7,163.3 C223.7,163.6 223.6,163.9 223.4,164.1 C223.2,164.3 222.9,164.4 222.6,164.4 Z M222.6,178.1 C222.4,178.1 222.2,178 222,177.9 C221.8,177.7 221.8,177.6 221.8,177.3 L221.8,167.5 C221.8,167.3 221.9,167.1 222,166.9 C222.2,166.7 222.3,166.7 222.6,166.7 C222.8,166.7 223,166.8 223.2,166.9 C223.3,167.1 223.4,167.3 223.4,167.5 L223.4,177.3 C223.4,177.5 223.3,177.7 223.2,177.9 C223,178 222.8,178.1 222.6,178.1 Z M232.7,178.2 C231.6,178.2 230.6,177.9 229.7,177.4 C228.8,176.9 228.1,176.2 227.6,175.3 C227.1,174.4 226.8,173.4 226.8,172.3 C226.8,171.2 227.1,170.2 227.6,169.3 C228.1,168.4 228.8,167.7 229.7,167.2 C230.6,166.7 231.6,166.4 232.7,166.4 C233.8,166.4 234.8,166.7 235.7,167.2 C236.6,167.7 237.3,168.4 237.8,169.3 C238.3,170.2 238.6,171.2 238.6,172.3 C238.6,173.4 238.3,174.4 237.8,175.3 C237.3,176.2 236.6,176.9 235.7,177.4 C234.8,178 233.8,178.2 232.7,178.2 Z M232.7,176.7 C233.5,176.7 234.2,176.5 234.9,176.1 C235.5,175.7 236,175.2 236.4,174.5 C236.8,173.8 236.9,173.1 236.9,172.3 C236.9,171.5 236.7,170.7 236.4,170 C236,169.3 235.5,168.8 234.9,168.4 C234.3,168 233.5,167.8 232.7,167.8 C231.9,167.8 231.2,168 230.5,168.4 C229.8,168.8 229.3,169.3 229,170 C228.6,170.7 228.4,171.4 228.4,172.3 C228.4,173.1 228.6,173.9 229,174.5 C229.4,175.2 229.9,175.7 230.5,176.1 C231.2,176.5 231.9,176.7 232.7,176.7 Z M247.2,166.5 C248.2,166.5 249.1,166.7 249.9,167.1 C250.7,167.5 251.3,168.1 251.8,168.9 C252.2,169.7 252.5,170.7 252.5,171.8 L252.5,177.3 C252.5,177.5 252.4,177.7 252.3,177.9 C252.1,178.1 252,178.1 251.7,178.1 C251.5,178.1 251.3,178 251.1,177.9 C250.9,177.7 250.9,177.6 250.9,177.3 L250.9,171.8 C250.9,170.6 250.6,169.6 249.9,169 C249.2,168.4 248.3,168 247.2,168 C246.5,168 245.9,168.1 245.3,168.4 C244.7,168.7 244.3,169 244,169.5 C243.7,170 243.5,170.5 243.5,171.1 L243.5,177.3 C243.5,177.5 243.4,177.7 243.3,177.9 C243.2,178.1 243,178.1 242.7,178.1 C242.5,178.1 242.3,178 242.1,177.9 C241.9,177.8 241.9,177.6 241.9,177.3 L241.9,167.4 C241.9,167.2 242,167 242.1,166.8 C242.3,166.6 242.4,166.6 242.7,166.6 C242.9,166.6 243.1,166.7 243.3,166.8 C243.4,167 243.5,167.2 243.5,167.4 L243.5,168.1 C244,167.6 244.5,167.2 245.2,166.9 C245.7,166.6 246.4,166.5 247.2,166.5 Z M260.8,166.5 C261.8,166.5 262.8,166.7 263.6,167.2 C264.4,167.7 265,168.4 265.5,169.2 C265.9,170.1 266.2,171 266.2,172.1 C266.2,172.3 266.1,172.5 266,172.6 C265.9,172.7 265.7,172.8 265.5,172.8 L257,172.8 C257.1,173.9 257.6,174.9 258.3,175.6 C259.1,176.3 260.1,176.7 261.2,176.7 C261.7,176.7 262.2,176.6 262.7,176.4 C263.2,176.2 263.6,176 263.9,175.7 C264.1,175.6 264.3,175.5 264.5,175.5 C264.7,175.5 264.8,175.6 265,175.7 C265.2,175.9 265.3,176.1 265.3,176.3 C265.3,176.5 265.2,176.6 265.1,176.8 C264.6,177.2 264,177.5 263.3,177.8 C262.6,178.1 261.9,178.2 261.2,178.2 C260.1,178.2 259.1,178 258.2,177.5 C257.3,177 256.6,176.3 256.1,175.4 C255.6,174.5 255.4,173.5 255.4,172.4 C255.4,171.3 255.6,170.3 256.1,169.4 C256.6,168.5 257.2,167.8 258.1,167.3 C258.8,166.8 259.8,166.5 260.8,166.5 Z M260.8,168 C259.7,168 258.9,168.3 258.2,169 C257.5,169.7 257.1,170.5 256.9,171.6 L264.6,171.6 C264.5,170.5 264.1,169.7 263.4,169 C262.8,168.3 261.9,168 260.8,168 Z" id="Shape" fill="#575756"></path>
                <path d="M77.1,83.1 C77.1,70.4 87.4,60.1 100.1,60.1 C112.8,60.1 123.1,70.4 123.1,83.1 L144.7,83.1 C144.7,58.5 124.7,38.5 100.1,38.5 C75.5,38.5 55.5,58.5 55.5,83.1 L77.1,83.1 Z" id="Path" fill="#FAB900"></path>
                <path d="M133.9,126.8 C128,126.8 123.1,122 123.1,116 L123.1,82.8 C123.1,76.9 127.9,72 133.9,72 C139.9,72 144.7,76.8 144.7,82.8 L144.7,116 C144.7,122 139.9,126.8 133.9,126.8" id="Path" fill="#00AEAA"></path>
                <path d="M144.7,83.1 C144.7,70.4 155,60.1 167.7,60.1 C180.4,60.1 190.7,70.4 190.7,83.1 L212.2,83.1 C212.2,58.5 192.2,38.5 167.6,38.5 C143,38.5 123,58.5 123,83.1 L144.7,83.1 Z" id="Path" fill="#E62C5F"></path>
                <path d="M201.5,126.8 C195.6,126.8 190.7,122 190.7,116 L190.7,82.8 C190.7,76.9 195.5,72 201.5,72 C207.4,72 212.3,76.8 212.3,82.8 L212.3,116 C212.3,122 207.5,126.8 201.5,126.8" id="Path" fill="#6CC6E2"></path>
                <path d="M212.3,83 C212.3,88.9 207.5,93.8 201.5,93.8 C195.5,93.8 190.7,89 190.7,83 C190.7,77.1 195.5,72.2 201.5,72.2 C207.5,72.2 212.3,77 212.3,83" id="Path" fill="#00AEAA"></path>
                <path d="M77.3,11 C77.3,17.1 72.4,22 66.3,22 C60.2,22 55.3,17.1 55.3,11 C55.3,4.9 60.2,0 66.3,0 C72.4,0 77.3,4.9 77.3,11" id="Path" fill="#E5333A"></path>
                <path d="M133.9,54.1 C127.3,61.8 123.2,71.9 123.1,82.8 C123.1,82.9 123.1,83 123.1,83 L144.7,83 C144.7,82.9 144.7,82.8 144.7,82.8 C144.6,71.9 140.6,61.9 133.9,54.1" id="Path" fill="#EB622B"></path>
                <path d="M144.7,83 C144.7,88.9 139.9,93.8 133.9,93.8 C128,93.8 123.1,89 123.1,83 C123.1,77.1 127.9,72.2 133.9,72.2 C139.9,72.2 144.7,77 144.7,83" id="Path" fill="#F5B60D"></path>
                <path d="M66.4,127.1 C60.5,127.1 55.6,122.3 55.6,116.3 L55.6,42.5 C55.6,36.6 60.4,31.7 66.4,31.7 C72.3,31.7 77.2,36.5 77.2,42.5 L77.2,116.3 C77.1,122.3 72.3,127.1 66.4,127.1" id="Path" fill="#E5333A"></path>
                <path d="M55.6,82.8 C55.6,82.8 55.6,82.9 55.6,82.9 C55.6,82.9 55.6,82.9 55.6,82.9 C55.6,82.9 55.6,83 55.6,83 C55.7,88.9 60.5,93.6 66.4,93.6 C72.3,93.6 77.1,88.9 77.2,83 L77.2,44.9 C64.3,52.8 55.7,66.8 55.6,82.8" id="Path" fill="#EB622B"></path>
            </g>
        </g>
    </g>
</svg>