<?xml version="1.0" encoding="utf-8"?>
<!-- Generator: Adobe Illustrator 22.0.1, SVG Export Plug-In . SVG Version: 6.00 Build 0)  -->
<svg version="1.1" id="Livello_1" xmlns="http://www.w3.org/2000/svg" xmlns:xlink="http://www.w3.org/1999/xlink" x="0px" y="0px"
	 viewBox="0 0 800 600" style="enable-background:new 0 0 800 600;" xml:space="preserve">
<style type="text/css">
	.st0{fill:#6CC6E2;}
	.st1{fill:#711162;}
	.st2{fill:#575756;}
	.st3{fill:#EB622B;}
	.st4{fill:#F6B707;}
	.st5{fill:#8B507B;}
	.st6{fill:#E5333A;}
</style>
<circle class="st0" cx="385" cy="273" r="10.9"/>
<path class="st1" d="M374.2,286.2v8.7l0,21.7c0.2,4.7,4.3,8.4,9.4,8.4v-8.7l0-21.7C383.4,290,379.3,286.2,374.2,286.2z"/>
<circle class="st2" cx="385" cy="273" r="5"/>
<path class="st1" d="M396,259.7l-14,0c-5.4-0.2-9.6-4.6-9.6-10h14v0C391.7,249.9,396,254.3,396,259.7z"/>
<path class="st3" d="M398.4,284.1h10v0c5.4-0.2,9.6-4.6,9.6-10h-10v0C402.7,274.3,398.4,278.7,398.4,284.1z"/>
<path class="st4" d="M398.4,262.2h14v0c5.4,0.2,9.6,4.6,9.6,10h-14v0C402.7,272,398.4,267.6,398.4,262.2z"/>
<path class="st5" d="M386.1,305.1l0,11.3v8.7c5.4,0,9.7-3.7,9.9-8.4l0-21.7l0,1.7C395.8,301.4,391.4,305.1,386.1,305.1z"/>
<g>
	<path class="st4" d="M386.2,327.7h10v0c5.4,0.2,9.6,4.6,9.6,10h-10v0C390.5,337.5,386.2,333.1,386.2,327.7z"/>
	<path class="st4" d="M386.2,327.8v10h0c0.2,5.4,4.6,9.6,10,9.6v-10h0C396,332.1,391.6,327.8,386.2,327.8z"/>
</g>
<path class="st1" d="M360,337.6h14v0c5.4-0.2,9.6-4.6,9.6-10h-14v0C364.2,327.8,360,332.2,360,337.6z"/>
<path class="st6" d="M386.1,305.1v-8.7l0-1.7c0.2-4.7,4.6-8.4,9.9-8.4v8.7l0,1.7C395.8,301.4,391.4,305.1,386.1,305.1z"/>
</svg>
