<?xml version="1.0" encoding="utf-8"?>
<!-- Generator: Adobe Illustrator 22.0.1, SVG Export Plug-In . SVG Version: 6.00 Build 0)  -->
<svg version="1.1" id="Livello_1" xmlns="http://www.w3.org/2000/svg" xmlns:xlink="http://www.w3.org/1999/xlink" x="0px" y="0px"
	 viewBox="0 0 800 600" style="enable-background:new 0 0 800 600;" xml:space="preserve">
<style type="text/css">
	.st0{fill:#E5333A;}
	.st1{fill:#E62C5F;}
	.st2{fill:#EB622B;}
	.st3{fill:#FABA00;}
	.st4{fill:#00ADA9;}
	.st5{fill:#6CC6E2;}
	.st6{fill:#575756;}
	.st7{fill:#711162;}
	.st8{fill:#8B507B;}
</style>
<circle class="st0" cx="390.8" cy="248.7" r="5"/>
<path class="st1" d="M402.4,253.7v10h0c-0.2,5.4-4.6,9.6-10,9.6v-10h0C392.6,258,397,253.7,402.4,253.7z"/>
<path class="st0" d="M389.4,273.4v-10h0c-0.2-5.4-4.6-9.6-10-9.6v10h0C379.6,269.1,384,273.4,389.4,273.4z"/>
<g>
	<path class="st2" d="M400.8,276.5h-10v0c-5.4,0.2-9.6,4.6-9.6,10h10v0C396.5,286.3,400.8,281.9,400.8,276.5z"/>
	<path class="st3" d="M381.1,289.4h10v0c5.4,0.2,9.6,4.6,9.6,10h-10v0C385.4,299.2,381.1,294.9,381.1,289.4z"/>
	<path class="st4" d="M400.8,302.7h-10v0c-5.4,0.2-9.6,4.6-9.6,10h10v0C396.5,312.5,400.8,308.1,400.8,302.7z"/>
	<path class="st5" d="M381.1,315.7h10v0c5.4,0.2,9.6,4.6,9.6,10h-10v0C385.4,325.5,381.1,321.2,381.1,315.7z"/>
	<path class="st6" d="M400,329.4h-8.7l-1.7,0c-4.7,0.2-8.4,4-8.4,8.7h8.7l1.7,0C396.2,338,400,334.2,400,329.4z"/>
	<path class="st7" d="M381.1,341.9h10v0c5.4,0.2,9.6,4.6,9.6,10h-10v0C385.4,351.7,381.1,347.3,381.1,341.9z"/>
	<path class="st8" d="M381.1,364.8h10v0c5.4-0.2,9.6-4.6,9.6-10h-10v0C385.4,355,381.1,359.4,381.1,364.8z"/>
</g>
</svg>
