<?xml version="1.0" encoding="utf-8"?>
<!-- Generator: Adobe Illustrator 22.0.1, SVG Export Plug-In . SVG Version: 6.00 Build 0)  -->
<svg version="1.1" id="Livello_1" xmlns="http://www.w3.org/2000/svg" xmlns:xlink="http://www.w3.org/1999/xlink" x="0px" y="0px"
	 viewBox="0 0 800 600" style="enable-background:new 0 0 800 600;" xml:space="preserve">
<style type="text/css">
	.st0{fill:#575756;}
	.st1{fill:#05AEAA;}
	.st2{fill:#E62C5F;}
	.st3{fill:#F6B707;}
	.st4{fill:#EB622B;}
	.st5{fill:#6CC6E2;}
	.st6{fill:#585657;}
	.st7{fill:#E5333A;}
	.st8{fill:#C53160;}
</style>
<g>
	<path class="st0" d="M406.3,291.1h-10l-2,0c-5.4,0.2-9.6,4.6-9.6,10h10l2,0C402,300.9,406.3,296.5,406.3,291.1z"/>
	<circle class="st1" cx="403.3" cy="348" r="5"/>
	<circle class="st1" cx="391.2" cy="351.7" r="5"/>
	<circle class="st1" cx="378.6" cy="351.7" r="5"/>
	<circle class="st1" cx="365.9" cy="348" r="5"/>
	<path class="st0" d="M363,291.1h12v0c5.4,0.2,9.6,4.6,9.6,10h-12v0C367.3,300.9,363,296.5,363,291.1z"/>
	<path class="st2" d="M406.1,252.7h-10v0c-5.4,0.2-9.6,4.6-9.6,10h10v0C401.8,262.5,406.1,258.1,406.1,252.7z"/>
	<path class="st3" d="M426.9,312.3v10h0c0.2,5.4,4.6,9.6,10,9.6v-10h0C436.7,316.6,432.3,312.3,426.9,312.3z"/>
	<path class="st3" d="M342.4,312.5v10h0c-0.2,5.4-4.6,9.6-10,9.6v-10h0C332.6,316.8,337,312.5,342.4,312.5z"/>
	<path class="st4" d="M424.9,257.7h-10v0c-5.4,0.2-9.6,4.6-9.6,10h10v0C420.7,267.5,424.9,263.1,424.9,257.7z"/>
	<path class="st3" d="M436.7,267.7h-10v0c-5.4,0.2-9.6,4.6-9.6,10h10v0C432.4,277.5,436.7,273.1,436.7,267.7z"/>
	<path class="st2" d="M363.1,252.7h10v0c5.4,0.2,9.6,4.6,9.6,10h-10v0C367.4,262.5,363.1,258.1,363.1,252.7z"/>
	<path class="st1" d="M344.2,257.7h10v0c5.4,0.2,9.6,4.6,9.6,10h-10v0C348.5,267.5,344.2,263.1,344.2,257.7z"/>
	<path class="st5" d="M332.4,267.7h10v0c5.4,0.2,9.6,4.6,9.6,10h-10v0C336.7,277.5,332.4,273.1,332.4,267.7z"/>
	<path class="st6" d="M423.5,303.2c0-18.5-13.2-34.5-31.3-38.1c-2.7-0.5-5.3,1.2-5.9,3.9c-0.5,2.7,1.2,5.3,3.9,5.9
		c13.5,2.7,23.2,14.6,23.2,28.3c0,0.4,0.1,0.8,0.1,1.1c-0.1,0.4-0.1,0.7-0.1,1.1c0,15.9-12.9,28.9-28.9,28.9s-28.9-12.9-28.9-28.9
		c0-0.4-0.1-0.8-0.1-1.1c0.1-0.4,0.1-0.7,0.1-1.1c0-13.7,9.8-25.6,23.2-28.3c2.7-0.5,4.5-3.2,3.9-5.9c-0.5-2.7-3.2-4.5-5.9-3.9
		c-18.1,3.6-31.3,19.6-31.3,38.1c0,0.4,0.1,0.8,0.1,1.1c-0.1,0.4-0.1,0.7-0.1,1.1c0,21.4,17.4,38.9,38.9,38.9
		c21.4,0,38.9-17.4,38.9-38.9c0-0.4-0.1-0.8-0.1-1.1C423.4,303.9,423.5,303.5,423.5,303.2z"/>
	<circle class="st0" cx="431.1" cy="304.3" r="5"/>
	<circle class="st0" cx="337.9" cy="304.3" r="5"/>
	<circle class="st7" cx="384.6" cy="248.7" r="5"/>
	<path class="st8" d="M394.5,315.6h-10v0c-5.4,0.2-9.6,4.6-9.6,10h10v0C390.2,325.4,394.5,321,394.5,315.6z"/>
</g>
</svg>
