<?xml version="1.0" encoding="UTF-8"?>
<svg width="121px" height="190px" viewBox="0 0 121 190" version="1.1" xmlns="http://www.w3.org/2000/svg" xmlns:xlink="http://www.w3.org/1999/xlink">
    <!-- Generator: Sketch 53 (72520) - https://sketchapp.com -->
    <title>portfolio</title>
    <desc>Created with Sketch.</desc>
    <g id="Page-1" stroke="none" stroke-width="1" fill="none" fill-rule="evenodd">
        <g id="Artboard" transform="translate(-156.000000, -8.000000)" fill-rule="nonzero">
            <g id="portfolio" transform="translate(156.000000, 8.000000)">
                <ellipse id="Oval" fill="#6CC6E2" cx="48.5" cy="45" rx="21.5" ry="21"></ellipse>
                <path d="M28,70 L28,87.0412371 L28,129.546392 C28.3829787,138.752577 36.2340426,146 46,146 L46,128.958763 L46,86.4536082 C45.6170213,77.443299 37.7659574,70 28,70 Z" id="Path" fill="#711162"></path>
                <ellipse id="Oval" fill="#575756" cx="49" cy="44.5" rx="10" ry="9.5"></ellipse>
                <path d="M70,19 L42.7118644,19 C32.1864407,18.62 24,10.26 24,0 L51.2881356,0 L51.2881356,0 C61.6186441,0.38 70,8.74 70,19 Z" id="Path" fill="#711162"></path>
                <path d="M75,66 L94.3877551,66 L94.3877551,66 C104.857143,65.62 113,57.26 113,47 L93.6122449,47 L93.6122449,47 C83.3367347,47.38 75,55.74 75,66 Z" id="Path" fill="#EB622B"></path>
                <path d="M75,24 L102.288136,24 L102.288136,24 C112.813559,24.38 121,32.74 121,43 L93.7118644,43 L93.7118644,43 C83.3813559,42.62 75,34.26 75,24 Z" id="Path" fill="#F6B707"></path>
                <path d="M51,107.797342 L51,129.946844 L51,147 C61.3636364,147 69.6161616,139.747508 70,130.534884 L70,88 L70,91.3322259 C69.6161616,100.54485 61.1717172,107.797342 51,107.797342 Z" id="Path" fill="#8B507B"></path>
                <g id="Group" transform="translate(51.000000, 151.000000)" fill="#F6B707">
                    <path d="M0.39,0.366666667 L19.89,0.366666667 L19.89,0.366666667 C30.42,0.757142857 38.61,9.34761905 38.61,19.8904762 L19.11,19.8904762 L19.11,19.8904762 C8.775,19.5 0.39,10.9095238 0.39,0.366666667 Z" id="Path"></path>
                    <path d="M0.39,0.561904762 L0.39,20.0857143 L0.39,20.0857143 C0.78,30.6285714 9.36,38.8285714 19.89,38.8285714 L19.89,19.3047619 L19.89,19.3047619 C19.5,8.95714286 10.92,0.561904762 0.39,0.561904762 Z" id="Path"></path>
                </g>
                <path d="M0,170 L27.2881356,170 L27.2881356,170 C37.8135593,169.62 46,161.26 46,151 L18.7118644,151 L18.7118644,151 C8.18644068,151.38 0,159.74 0,170 Z" id="Path" fill="#711162"></path>
                <path d="M51,108 L51,90.8776596 L51,87.5319149 C51.3838384,78.2819149 59.8282828,71 70,71 L70,88.1223404 L70,91.4680851 C69.6161616,100.718085 61.1717172,108 51,108 Z" id="Path" fill="#E5333A"></path>
            </g>
        </g>
    </g>
</svg>