<?xml version="1.0" encoding="UTF-8"?>
<svg width="35px" height="189px" viewBox="0 0 35 189" version="1.1" xmlns="http://www.w3.org/2000/svg" xmlns:xlink="http://www.w3.org/1999/xlink">
    <!-- Generator: Sketch 53 (72520) - https://sketchapp.com -->
    <title>servizi</title>
    <desc>Created with Sketch.</desc>
    <g id="Page-1" stroke="none" stroke-width="1" fill="none" fill-rule="evenodd">
        <g id="Artboard" transform="translate(-119.000000, -7.000000)" fill-rule="nonzero">
            <g id="servizi" transform="translate(119.000000, 7.000000)">
                <ellipse id="Oval" fill="#E5333A" cx="17.5" cy="8" rx="7.5" ry="8"></ellipse>
                <path d="M35,15 L35,30.8163265 L35,30.8163265 C34.7,39.3571429 28.1,46 20,46 L20,30.1836735 L20,30.1836735 C20.3,21.8010204 26.9,15 35,15 Z" id="Path" fill="#E62C5F"></path>
                <path d="M15,47 L15,31.1836735 L15,31.1836735 C14.7,22.6428571 8.1,16 0,16 L0,31.8163265 L0,31.8163265 C0.3,40.1989796 6.9,47 15,47 Z" id="Path" fill="#E5333A"></path>
                <g id="Group" transform="translate(2.000000, 50.000000)">
                    <path d="M30.69,0.780898876 L15.19,0.780898876 L15.19,0.780898876 C6.82,1.09325843 0.31,7.96516854 0.31,16.3988764 L15.81,16.3988764 L15.81,16.3988764 C24.025,16.0865169 30.69,9.21460674 30.69,0.780898876 Z" id="Path" fill="#EB622B"></path>
                    <path d="M0.155,20.9280899 L15.655,20.9280899 L15.655,20.9280899 C24.025,21.2404494 30.535,28.1123596 30.535,36.5460674 L15.035,36.5460674 L15.035,36.5460674 C6.82,36.2337079 0.155,29.5179775 0.155,20.9280899 Z" id="Path" fill="#FABA00"></path>
                    <path d="M30.69,41.7 L15.19,41.7 L15.19,41.7 C6.82,42.0123596 0.31,48.8842697 0.31,57.3179775 L15.81,57.3179775 L15.81,57.3179775 C24.025,57.005618 30.69,50.1337079 30.69,41.7 Z" id="Path" fill="#00ADA9"></path>
                    <path d="M0.155,62.0033708 L15.655,62.0033708 L15.655,62.0033708 C24.025,62.3157303 30.535,69.1876404 30.535,77.6213483 L15.035,77.6213483 L15.035,77.6213483 C6.82,77.3089888 0.155,70.5932584 0.155,62.0033708 Z" id="Path" fill="#6CC6E2"></path>
                    <path d="M29.45,83.4 L15.965,83.4 L13.33,83.4 C6.045,83.7123596 0.31,89.647191 0.31,96.9876404 L13.795,96.9876404 L16.43,96.9876404 C23.56,96.8314607 29.45,90.8966292 29.45,83.4 Z" id="Path" fill="#575756"></path>
                    <path d="M0.155,102.922472 L15.655,102.922472 L15.655,102.922472 C24.025,103.234831 30.535,110.106742 30.535,118.540449 L15.035,118.540449 L15.035,118.540449 C6.82,118.22809 0.155,111.35618 0.155,102.922472 Z" id="Path" fill="#711162"></path>
                    <path d="M0.155,138.68764 L15.655,138.68764 L15.655,138.68764 C24.025,138.375281 30.535,131.503371 30.535,123.069663 L15.035,123.069663 L15.035,123.069663 C6.82,123.382022 0.155,130.253933 0.155,138.68764 Z" id="Path" fill="#8B507B"></path>
                </g>
            </g>
        </g>
    </g>
</svg>