<?xml version="1.0" encoding="UTF-8"?>
<svg width="180px" height="193px" viewBox="0 0 180 193" version="1.1" xmlns="http://www.w3.org/2000/svg" xmlns:xlink="http://www.w3.org/1999/xlink">
    <!-- Generator: Sketch 53 (72520) - https://sketchapp.com -->
    <title>who</title>
    <desc>Created with Sketch.</desc>
    <g id="Page-1" stroke="none" stroke-width="1" fill="none" fill-rule="evenodd">
        <g id="Artboard" transform="translate(-9.000000, -6.000000)" fill-rule="nonzero">
            <g id="who" transform="translate(9.000000, 6.000000)">
                <path d="M127,81 L109.87037,81 L106.444444,81 C97.1944444,81.34 90,88.82 90,98 L107.12963,98 L110.555556,98 C119.634259,97.66 127,90.18 127,81 Z" id="Path" fill="#575756"></path>
                <circle id="Oval" fill="#05AEAA" cx="122.5" cy="178.5" r="8.5"></circle>
                <circle id="Oval" fill="#05AEAA" cx="101.5" cy="184.5" r="8.5"></circle>
                <circle id="Oval" fill="#05AEAA" cx="79.5" cy="184.5" r="8.5"></circle>
                <circle id="Oval" fill="#05AEAA" cx="58.5" cy="178.5" r="8.5"></circle>
                <path d="M53,81 L73.5555556,81 L73.5555556,81 C82.8055556,81.34 90,88.82 90,98 L69.4444444,98 L69.4444444,98 C60.3657407,97.66 53,90.18 53,81 Z" id="Path" fill="#575756"></path>
                <path d="M127,16 L109.653061,16 L109.653061,16 C100.285714,16.34 93,23.82 93,33 L110.346939,33 L110.346939,33 C119.540816,32.66 127,25.18 127,16 Z" id="Path" fill="#E62C5F"></path>
                <path d="M163,117 L163,134.346939 L163,134.346939 C163.34,143.714286 170.82,151 180,151 L180,133.653061 L180,133.653061 C179.66,124.459184 172.18,117 163,117 Z" id="Path" fill="#F6B707"></path>
                <path d="M18,118 L18,135.346939 L18,135.346939 C17.66,144.714286 10.18,152 1,152 L1,134.653061 L1,134.653061 C1.34,125.459184 8.82,118 18,118 Z" id="Path" fill="#F6B707"></path>
                <path d="M159,24 L141.653061,24 L141.653061,24 C132.285714,24.34 125,31.82 125,41 L142.346939,41 L142.346939,41 C151.714286,40.66 159,33.18 159,24 Z" id="Path" fill="#EB622B"></path>
                <path d="M180,41 L162.653061,41 L162.653061,41 C153.285714,41.34 146,48.82 146,58 L163.346939,58 L163.346939,58 C172.540816,57.66 180,50.18 180,41 Z" id="Path" fill="#F6B707"></path>
                <path d="M53,16 L70.3469388,16 L70.3469388,16 C79.7142857,16.34 87,23.82 87,33 L69.6530612,33 L69.6530612,33 C60.4591837,32.66 53,25.18 53,16 Z" id="Path" fill="#E62C5F"></path>
                <path d="M21,24 L38.3469388,24 L38.3469388,24 C47.7142857,24.34 55,31.82 55,41 L37.6530612,41 L37.6530612,41 C28.4591837,40.66 21,33.18 21,24 Z" id="Path" fill="#05AEAA"></path>
                <path d="M0,41 L17.3469388,41 L17.3469388,41 C26.7142857,41.34 34,48.82 34,58 L16.6530612,58 L16.6530612,58 C7.45918367,57.66 0,50.18 0,41 Z" id="Path" fill="#6CC6E2"></path>
                <path d="M157,101.527119 C157,69.8057488 134.323077,42.3710505 103.228205,36.1982433 C98.5897436,35.340909 94.1230769,38.2558457 93.0923077,42.8854511 C92.2333333,47.5150564 95.1538462,51.9731949 99.7923077,53.0019961 C122.984615,57.6316014 139.648718,78.0361583 139.648718,101.527119 C139.648718,102.212986 139.820513,102.898854 139.820513,103.413254 C139.648718,104.099122 139.648718,104.613522 139.648718,105.29939 C139.648718,132.562621 117.487179,154.853314 90,154.853314 C62.5128205,154.853314 40.3512821,132.734088 40.3512821,105.29939 C40.3512821,104.613522 40.1794872,103.927655 40.1794872,103.413254 C40.3512821,102.727387 40.3512821,102.212986 40.3512821,101.527119 C40.3512821,78.0361583 57.1871795,57.6316014 80.2076923,53.0019961 C84.8461538,52.1446617 87.9384615,47.5150564 86.9076923,42.8854511 C86.0487179,38.2558457 81.4102564,35.1694421 76.7717949,36.1982433 C45.6769231,42.3710505 23,69.8057488 23,101.527119 C23,102.212986 23.1717949,102.898854 23.1717949,103.413254 C23,104.099122 23,104.613522 23,105.29939 C23,141.993299 52.8923077,172 89.8282051,172 C126.592308,172 156.65641,142.164766 156.65641,105.29939 C156.65641,104.613522 156.484615,103.927655 156.484615,103.413254 C156.828205,102.727387 157,102.041519 157,101.527119 Z" id="Path" fill="#585657"></path>
                <circle id="Oval" fill="#575756" cx="169.5" cy="103.5" r="8.5"></circle>
                <circle id="Oval" fill="#575756" cx="10.5" cy="103.5" r="8.5"></circle>
                <circle id="Oval" fill="#E5333A" cx="90.5" cy="8.5" r="8.5"></circle>
                <path d="M107,123 L89.6530612,123 L89.6530612,123 C80.2857143,123.34 73,130.82 73,140 L90.3469388,140 L90.3469388,140 C99.5408163,139.66 107,132.18 107,123 Z" id="Path" fill="#C53160"></path>
            </g>
        </g>
    </g>
</svg>